<?xml version="1.0" encoding="UTF-8"?>
<!DOCTYPE svg PUBLIC "-//W3C//DTD SVG 1.1//EN" "http://www.w3.org/Graphics/SVG/1.1/DTD/svg11.dtd">
<!-- Creator: CorelDRAW 2020 (64-Bit) -->
<svg xmlns="http://www.w3.org/2000/svg" xml:space="preserve" width="182.691mm" height="79.0404mm" version="1.1" style="shape-rendering:geometricPrecision; text-rendering:geometricPrecision; image-rendering:optimizeQuality; fill-rule:evenodd; clip-rule:evenodd"
viewBox="0 0 18268.08 7903.58"
 xmlns:xlink="http://www.w3.org/1999/xlink"
 xmlns:xodm="http://www.corel.com/coreldraw/odm/2003">
 <defs>
  <style type="text/css">
   <![CDATA[
    .fil1 {fill:#1B297B}
    .fil0 {fill:#923F92}
    .fil2 {fill:#0C2F52;fill-rule:nonzero}
    .fil8 {fill:#17538E;fill-rule:nonzero}
    .fil6 {fill:#18548F;fill-rule:nonzero}
    .fil9 {fill:#1D5590;fill-rule:nonzero}
    .fil4 {fill:#1E5791;fill-rule:nonzero}
    .fil10 {fill:#315391;fill-rule:nonzero}
    .fil11 {fill:#525294;fill-rule:nonzero}
    .fil5 {fill:#6E4691;fill-rule:nonzero}
    .fil7 {fill:#904193;fill-rule:nonzero}
    .fil3 {fill:#923F92;fill-rule:nonzero}
   ]]>
  </style>
 </defs>
 <g id="Layer_x0020_1">
  <metadata id="CorelCorpID_0Corel-Layer"/>
  <g id="_2035236466992">
   <path class="fil0" d="M3656.56 9.81c-1476.51,102.01 -2538.16,923.35 -3189.76,2054.57 -128.58,223.23 -238.68,551.24 -269.12,601.33 -76.45,125.78 -173.77,53.68 -195.47,226.08 -18.1,143.82 77.85,229.76 217.95,218.74 120.41,-9.47 191.32,-110.93 160.83,-241.8 -48.49,-208.18 -96.66,-74.4 12.26,-346.25 395.47,-987.01 1205.87,-1768.32 2202.05,-2150.85 933.71,-358.55 2002.13,-321.64 2913.79,92.91 418.88,190.47 671.86,383.23 949.33,612.49 61.62,-1.99 124.07,-3.69 187.73,-4.93 -766.77,-722.5 -1825.05,-1142.77 -2989.59,-1062.3z"/>
   <path class="fil0" d="M5846.96 7415.47c181.92,-96.6 366.9,-222.64 508.6,-335.3 990.6,-787.64 1144,-1505.87 1261.67,-1660.63 77.17,-101.51 178.77,-51.34 184.2,-231.02 8.47,-279.74 -420.05,-264.35 -387.16,29.07 18.76,167.47 131.76,58.11 26.32,277.33 -317.73,660.54 -703.8,1162.41 -1324.12,1599.51 -1516.33,1068.47 -3607.96,854.95 -4878.82,-448.68 -87.02,-89.27 -127.76,-113.41 -207.15,-213.95 -209.68,-265.52 -337.51,-433.5 -504.4,-761.13 -115.46,-226.66 -48.76,-97.28 -8.21,-268.44 72.11,-304.26 -384.33,-320.08 -380.36,-46.18 2.69,185.41 96.1,138.98 180.41,214.03 19.07,16.98 264.92,471.07 306.13,537.4 771.78,1242.31 2372.73,2009.14 3974.7,1743.63 470.72,-78.02 860.72,-229.9 1248.19,-435.63z"/>
   <path class="fil1" d="M3628.45 517.88c-1558.98,170.66 -2717.77,1239.27 -3043.63,2647.89 -96.53,417.3 -116.6,853.25 -53.81,1291.75 46.14,322.08 113.12,553.99 233.85,837.23 91.95,215.75 7.34,92.95 -5.16,263.14 -16.84,229.44 324.48,277.64 381.02,69.89 32.1,-117.94 -16.06,-184.86 -93.41,-226.55 -147.84,-79.71 -105.35,12.87 -177.68,-183.68 -1064.33,-2892.41 1578.93,-5200.22 4053.29,-4445.93 486.78,148.39 205.22,269.6 466.67,261.47 237.6,-7.38 231.38,-357.47 23.39,-385.2 -159.17,-21.23 -109.93,69.61 -239.49,65.12 -82.55,-2.87 -676.86,-290.17 -1545.04,-195.13z"/>
   <path class="fil1" d="M4924.1 7280.33c740.28,-223.13 1352.35,-665.11 1785.05,-1231.57 -42.52,-9.35 -86.9,-22.69 -132.16,-41.18 -600.65,775.08 -1518.36,1258.96 -2561.82,1281.36 -341.76,7.33 -904.86,-72.27 -1178.81,-191.01 -170.33,-73.85 -37.93,-68.17 -130.15,-206.85 -54.09,-81.33 -160.51,-96.16 -247.42,-58.23 -157.12,68.56 -149.9,372.81 92.6,368.11 169.55,-3.29 108.25,-32.67 291.25,31.57 87.89,30.86 168.22,55.24 260.23,78.06 604.56,150 1241.58,144.45 1821.22,-30.26z"/>
   <path class="fil0" d="M1048.83 4522.42c-239.1,182.19 45.38,298.43 101.98,439.7 588.93,1469.71 1955.67,2149.88 3274.29,1916.1 -31.84,-32.07 -70.83,-71.62 -113.7,-115.63 -1176.15,155.05 -2365.31,-454.25 -2880.12,-1489.33 -115.2,-231.64 -197.78,-338.58 -129.86,-463.43 141.32,-259.79 -78.8,-419.83 -252.59,-287.4zm3616.66 2302.71c438.3,-115.66 865.61,-334.25 1250.89,-661.03 19.05,-16.16 37.49,-32.16 55.36,-47.99 -414.83,206.35 -1022.39,517.91 -1306.24,709.02z"/>
   <path class="fil0" d="M3549.65 1011.86c-1863.33,290.01 -2256.91,1727.26 -2390.13,1828.7 -77.71,59.18 -132.08,37.8 -152.87,161.92 -19.29,115.17 34,187.61 99.68,214.31 185.39,75.34 329,-78.06 271.79,-248.05 -40.92,-121.57 -118.63,-42.19 91.97,-408.51 149.2,-259.52 334.83,-498.95 532.47,-675.31 844.74,-753.84 1899.68,-934.4 2814.56,-634.81 78.98,-15.61 160.95,-30.51 246.31,-44.55 -468.96,-192.42 -996.87,-274.15 -1513.78,-193.71z"/>
   <path class="fil0" d="M3340.52 1684.93c88.1,-20.55 174.87,-36.71 260.22,-48.71 112.38,-54.95 242.08,-110.25 391.28,-163.66 -57.62,-1.48 -115.92,-1.2 -174.86,0.89 -170.07,6.03 -287.13,37.95 -444.54,66.78 -172.01,31.48 -269.98,-109.19 -397.21,25.93 -100.69,106.93 -49.72,279.51 74.28,320.83 46.61,15.52 83.76,20.1 113.94,16.78 33.02,-25.86 69.95,-53 111.46,-81.09 25.02,-44.11 40.65,-97.53 65.43,-137.75z"/>
   <path class="fil0" d="M3930.48 6416.94c18.36,0.02 36.92,-0.55 55.58,-1.5 -42.59,-48.09 -81.46,-93.68 -113.43,-133.93 -180.58,-13.33 -363.4,-40.52 -443.03,-58.05 -692.01,-152.33 -1298.26,-662.26 -1599.39,-1321.24 -223.91,-489.97 -278.24,-1299.35 -46.48,-1804.44 50.17,-109.37 41.7,-62.43 145.76,-103.69 114.46,-45.41 182.7,-202.3 73.78,-315.55 -107.87,-112.18 -291.31,-39.19 -328.12,58.37 -60.21,159.55 70.17,69.01 -46.59,403.58 -536.57,1537.71 586.25,3274.7 2301.93,3276.46z"/>
   <path class="fil1" d="M4534.77 6536.89l0 -0.44 2.7 0c10.46,-1.84 20.82,-5.31 30.7,-10.53 374.2,-197.35 759.63,-371.55 1153.97,-521.56 310.64,-117.96 626.74,-220.91 946.79,-308.37 2.19,3.71 4.47,7.35 6.82,10.95l0.63 0 0 0.96c1.89,2.87 3.84,5.7 5.83,8.5l0.47 0 0 0.66c32.1,44.79 76.76,79.93 128.83,100.26l0.49 0 0 0.2c2.64,1.02 5.3,2.01 7.98,2.96l1.48 0 0 0.53c2.63,0.91 5.27,1.78 7.93,2.62l1.53 0 0 0.49c7.18,2.22 14.49,4.16 21.9,5.82l0.18 0 0 0.05c14.19,3.17 28.77,5.28 43.67,6.26l6.8 0 0 0.36c4.08,0.18 8.18,0.27 12.3,0.27 2.22,0 4.42,-0.03 6.62,-0.08l0 -0.55 12.17 0c6.52,-0.42 12.98,-1.05 19.38,-1.91l0 -1.24 8.37 0c8.92,-1.46 17.7,-3.32 26.32,-5.59l0 -0.72 2.69 0c2.27,-0.62 4.53,-1.27 6.78,-1.94l0 -1.22 3.98 0c1.83,-0.58 3.66,-1.16 5.48,-1.77l0 -1.38 3.91 0c11.68,-4.14 23.02,-9.01 33.94,-14.56l0 -1.21 2.33 0c1.33,-0.69 2.66,-1.39 3.98,-2.1l0 -1.06 1.91 0c1.48,-0.8 2.94,-1.62 4.4,-2.45l0 -0.7 1.19 0c1.72,-1 3.43,-2 5.12,-3.03l0 -0.12 0.2 0c6.41,-3.91 12.65,-8.08 18.72,-12.46l0 -0.16 0.22 0c0.98,-0.71 1.97,-1.42 2.94,-2.14l0 -1.02 1.35 0c3.83,-2.88 7.59,-5.86 11.26,-8.93l0 -0.53 0.63 0c0.84,-0.71 1.69,-1.42 2.53,-2.14l0 -1.01 1.19 0c0.66,-0.58 1.31,-1.17 1.96,-1.75l0 -1.41 1.59 0c8.34,-7.48 16.23,-15.45 23.65,-23.86l0 -1.37 1.22 0c0.65,-0.75 1.29,-1.51 1.93,-2.27l0 -0.89 0.75 0c0.81,-0.94 1.61,-1.89 2.4,-2.85l0 -0.3 0.25 0c3.17,-3.87 6.24,-7.83 9.22,-11.86l0 -0.76 0.55 0c4.24,-5.78 8.26,-11.74 12.06,-17.85l0 -1.07 0.67 0c0.84,-1.36 1.67,-2.74 2.49,-4.12l0 -2.19 1.29 0c1.73,-2.97 3.39,-5.97 5.02,-9l0 -0.46 0.24 0c0.99,-1.86 1.96,-3.74 2.91,-5.62l0 -0.69 0.34 0c0.96,-1.92 1.9,-3.84 2.82,-5.78l0 -0.53 0.24 0c3.37,-7.15 6.45,-14.47 9.22,-21.93l0 -0.15 0.05 0c1.08,-2.91 2.12,-5.84 3.1,-8.79l0 -3.83 1.24 0c0.67,-2.07 1.3,-4.16 1.92,-6.26l0 -3.2 0.92 0c0.79,-2.81 1.52,-5.64 2.23,-8.49l0 -0.97 0.24 0c1.07,-4.42 2.05,-8.88 2.92,-13.37l0 -2.4 0.46 0c1.08,-5.85 1.97,-11.76 2.69,-17.72l0 -13.82 1.33 0c0.49,-6.86 0.75,-13.78 0.75,-20.76 0,-7.88 -0.33,-15.68 -0.96,-23.4l-1.12 0 0 -11.16c-1.35,-11.22 -3.35,-22.23 -5.95,-33l-0.36 0 0 -1.46c-0.66,-2.68 -1.36,-5.35 -2.1,-8.01l-1.05 0 0 -3.67c-0.57,-1.94 -1.15,-3.87 -1.76,-5.79l-1.4 0 0 -4.3c-0.93,-2.79 -1.9,-5.56 -2.92,-8.32l-0.23 0 0 -0.62c-1.9,-5.12 -3.96,-10.17 -6.14,-15.15l-0.17 0 0 -0.38c-0.87,-1.99 -1.77,-3.96 -2.69,-5.93l-0.46 0 0 -0.99c-0.85,-1.78 -1.71,-3.55 -2.59,-5.31l-0.57 0 0 -1.16c-0.87,-1.73 -1.76,-3.44 -2.67,-5.15l-0.48 0 0 -0.93c-0.97,-1.8 -1.96,-3.6 -2.96,-5.38l-0.2 0 0 -0.36c-1.73,-3.07 -3.51,-6.11 -5.35,-9.1l-0.96 0 0 -1.54c-0.99,-1.6 -2.01,-3.19 -3.03,-4.77l-0.12 0 0 -0.18c-2.04,-3.14 -4.14,-6.24 -6.3,-9.29l-0.01 0 0 -0.01c-0.75,-1.06 -1.51,-2.1 -2.27,-3.14l-0.88 0 0 -1.21c-2.86,-3.88 -5.81,-7.68 -8.86,-11.41l-0.61 0 0 -0.75c-0.66,-0.81 -1.34,-1.6 -2.02,-2.4l-1.13 0 0 -1.34c-9.19,-10.79 -19.17,-20.89 -29.85,-30.2l-1.69 0 0 -1.47 -2 -1.69 -1.16 0 0 -0.97c-0.87,-0.74 -1.76,-1.46 -2.64,-2.18l-0.51 0 0 -0.41c-3.85,-3.12 -7.78,-6.14 -11.79,-9.06l-0.83 0 0 -0.6c-5.84,-4.22 -11.85,-8.23 -18.01,-12.01l-0.91 0 0 -0.57c-1.45,-0.88 -2.91,-1.73 -4.37,-2.59l-1.94 0 0 -1.14c-1.19,-0.68 -2.4,-1.34 -3.6,-2.01l-2.71 0 0 -1.5c-1.04,-0.56 -2.09,-1.1 -3.14,-1.65l-0.01 0 0 -0.01c-2.05,-1.08 -4.11,-2.12 -6.18,-3.15l-0.13 0 0 -0.06c-6.9,-3.4 -13.96,-6.55 -21.16,-9.4l-0.92 0 0 -0.36c-2.47,-0.97 -4.95,-1.9 -7.45,-2.8l-2.02 0 0 -0.7c-2.41,-0.85 -4.83,-1.67 -7.27,-2.45l-2.19 0 0 -0.71c-2.74,-0.86 -5.51,-1.67 -8.29,-2.44l-1.17 0 0 -0.32c-3.69,-1.01 -7.4,-1.97 -11.15,-2.84l-1.47 0 0 -0.32c-4.68,-1.06 -9.41,-2 -14.18,-2.83l-4.74 0 0 -0.79c-6.52,-1.02 -13.11,-1.8 -19.77,-2.37l-11.78 0 0 -0.77c-4.28,-0.19 -8.59,-0.3 -12.93,-0.3 -5.19,0 -10.33,0.16 -15.45,0.43l0 0.64 -9.49 0c-12.87,1.11 -25.5,3.08 -37.83,5.83l0 0.48 -2.07 0c-3.54,0.82 -7.06,1.7 -10.54,2.65l0 0.51 -1.83 0c-14.62,4.07 -28.77,9.27 -42.33,15.51l0 0.26 -0.56 0c-1.93,0.89 -3.85,1.8 -5.75,2.74l0 0.41 -0.84 0c-1.83,0.91 -3.66,1.83 -5.47,2.78l0 0.38 -0.73 0c-1.87,0.98 -3.73,1.98 -5.58,3l0 0.15 -0.26 0c-5.28,2.92 -10.45,6.01 -15.51,9.24l0 0.22 -0.34 0c-3.09,1.98 -6.12,4.02 -9.12,6.11l0 0.2 -0.29 0c-4.2,2.93 -8.31,5.97 -12.33,9.11l0 0.35 -0.44 0c-7.53,5.91 -14.75,12.18 -21.64,18.79l0 0.14 -0.14 0c-1.01,0.97 -2.02,1.95 -3.01,2.93l0 0.22 -0.23 0c-0.99,0.98 -1.96,1.97 -2.93,2.96l0 0.2 -0.19 0c-1,1.02 -1.98,2.04 -2.96,3.08l0 0.07 -0.08 0c-5.47,5.78 -10.71,11.78 -15.69,18l0 0.93 -0.75 0c-0.81,1.02 -1.61,2.04 -2.41,3.07l0 0.08 -0.06 0c-2.13,2.76 -4.22,5.55 -6.25,8.39l0 1.07 -0.76 0c-4.17,5.88 -8.13,11.92 -11.85,18.12l0 0.81 -0.48 0c-10,16.74 -18.32,34.59 -24.76,53.31l0 0.31 -0.11 0c-1.07,3.13 -2.08,6.29 -3.04,9.47l0 3.15 -0.94 0c-0.78,2.67 -1.51,5.36 -2.22,8.07l0 1.39 -0.36 0c-0.6,2.35 -1.18,4.72 -1.72,7.1 -6.67,1.8 -13.33,3.62 -19.99,5.44l0 0.08 -0.3 0c-7.26,1.98 -14.53,3.97 -21.78,5.97l0 0.34 -1.24 0 -11.38 3.14 0 0.01 -0.06 0c-7.34,2.03 -14.68,4.07 -22.02,6.12l0 0.19 -0.68 0c-7.14,1.99 -14.27,3.99 -21.4,5.99l0 0.32 -1.11 0c-7,1.97 -13.99,3.94 -20.97,5.92l0 0.39 -1.37 0c-6.91,1.96 -13.81,3.93 -20.71,5.9l0 0.41 -1.43 0c-6.89,1.97 -13.77,3.94 -20.65,5.93l0 0.37 -1.31 0c-6.93,2 -13.85,4.01 -20.77,6.02l0 0.29 -1.02 0c-24.92,7.25 -49.82,14.59 -74.68,22.02l0 0.06 -0.21 0 -9.26 2.77 0 0.39 -1.28 0c-6.94,2.08 -13.87,4.16 -20.8,6.25l0 0.06 -0.16 0 -9.3 2.81 0 0.34 -1.12 0 -8.34 2.53 0 0.62 -2.04 0c-6.69,2.04 -13.36,4.08 -20.04,6.13l0 0.18 -0.6 0 -8.86 2.72 0 0.44 -1.41 0c-10.05,3.09 -20.09,6.2 -30.14,9.32l0 0.14 -0.44 0 -9.02 2.81 0 0.34 -1.1 0c-13.31,4.16 -26.61,8.34 -39.9,12.55l0 0.07 -0.23 0c-26.25,8.31 -52.46,16.72 -78.63,25.23l0 0 -9.46 3.08 0 0.08 -0.23 0 -9.23 3.02 0 0.13 -0.42 0 -9.05 2.97 0 0.19 -0.56 0 -8.9 2.92 0 0.23 -0.69 0 -8.77 2.89 0 0.27 -0.8 0 -8.66 2.87 0 0.28 -0.85 0 -8.62 2.86 0 0.29 -0.88 0 -8.58 2.86 0 0.3 -0.89 0 -8.57 2.86 0 0.29 -0.86 0 -8.61 2.88 0 0.28 -0.8 0 -8.66 2.91 0 0.24 -0.72 0 -8.74 2.95 0 0.2 -0.61 0 -8.85 3 0 0.16 -0.47 0 -9 3.05 0 0.1 -0.3 0c-24.11,8.2 -48.2,16.49 -72.25,24.86l0 0.38 -1.08 0 -8.38 2.92 0 0.23 -0.66 0 -8.8 3.08 0 0.08 -0.23 0c-11.5,4.02 -22.98,8.07 -34.47,12.14l0 0.47 -1.34 0 -8.12 2.88 0 0.28 -0.77 0 -8.69 3.09 0 0.06 -0.17 0c-11.52,4.1 -23.03,8.23 -34.53,12.37l0 0.25 -0.69 0c-13.84,4.98 -27.67,10 -41.48,15.04 -307.55,-199.11 -566.51,-457.05 -764.45,-754.8 2.88,-3.6 5.76,-7.21 8.64,-10.83l0 -0.08 0.06 0c7.39,-9.29 14.72,-18.61 22.02,-27.96l0 -0.43 0.33 0c3.05,-3.91 6.09,-7.83 9.13,-11.75l0 -0.87 0.67 0c4,-5.16 7.98,-10.33 11.95,-15.52l0 -0.25 0.19 0c3.1,-4.04 6.19,-8.09 9.27,-12.14l0 -0.47 0.36 0c3.04,-4 6.07,-8.01 9.1,-12.01l0 -0.61 0.46 0c5.31,-7.03 10.61,-14.08 15.88,-21.14 4.03,-5.42 8.05,-10.85 12.05,-16.29l0 -0.42 0.31 0c3.06,-4.16 6.11,-8.33 9.15,-12.5l0 -0.12 0.09 0c2.08,-2.85 4.15,-5.71 6.22,-8.57l0 -0.89 0.65 0c2.95,-4.07 5.89,-8.13 8.81,-12.21l0 -0.41 0.3 0 6.01 -8.38 0 -1.08 0.78 0c2.91,-4.07 5.8,-8.14 8.69,-12.22l0 -0.4 0.28 0 6.02 -8.54 0 -0.92 0.66 0c2.94,-4.18 5.88,-8.37 8.81,-12.56l0 -0.06 0.04 0 6.27 -9 0 -0.46 0.31 0c11.59,-16.7 23.05,-33.5 34.38,-50.38l0 -0.09 0.06 0c2.09,-3.11 4.17,-6.23 6.25,-9.35l0 -0.11 0.08 0 6.23 -9.38 0 -0.09 0.06 0c2.08,-3.14 4.17,-6.29 6.25,-9.45l0 -0.01 0.01 0c5.28,-8.02 10.53,-16.07 15.76,-24.14l0 -1.09 0.71 0c1.86,-2.88 3.74,-5.76 5.6,-8.65l0 -0.81 0.52 0c1.93,-3.01 3.86,-6.03 5.79,-9.04l0 -0.43 0.27 0c2.02,-3.15 4.03,-6.3 6.03,-9.46l0 0 0.01 0c5.28,-8.32 10.54,-16.66 15.76,-25.02l0 -0.21 0.14 0c3.12,-5 6.23,-10 9.33,-15.01l0 -0.77 0.48 0c3,-4.86 6,-9.73 8.98,-14.6l0 -1.17 0.72 0 5.59 -9.17 0 -0.29 0.18 0c3.1,-5.11 6.2,-10.22 9.28,-15.35l0 -0.42 0.26 0c3.08,-5.12 6.15,-10.25 9.2,-15.38l0 -0.39 0.24 0c3.09,-5.19 6.16,-10.38 9.23,-15.59l0 -0.18 0.11 0c7.39,-12.55 14.71,-25.14 21.97,-37.78l0 -0.07 0.04 0c4.21,-7.34 8.41,-14.69 12.57,-22.05l0 -0.03 0.02 0 3.14 -5.57 0 -0.74 0.41 0c4.09,-7.26 8.16,-14.54 12.21,-21.83l0 -0.25 0.14 0 3.01 -5.42 0 -0.89 0.49 0 2.66 -4.85 0 -1.46 0.81 0c3.95,-7.2 7.9,-14.41 11.81,-21.63l0 -0.45 0.24 0 2.92 -5.38 0 -0.93 0.49 0c6.2,-11.49 12.35,-23.01 18.43,-34.57l0 -0.12 0.06 0c25.13,-47.73 49.3,-95.99 72.49,-144.79l0 -0.3 0.14 0c5.26,-11.07 10.47,-22.18 15.63,-33.31l0 -1.39 0.65 0 2.5 -5.41 0 -0.89 0.41 0 2.75 -5.98 0 -0.33 0.15 0c3.12,-6.8 6.23,-13.62 9.31,-20.44l0 -1.64 0.74 0 2.42 -5.35 0 -0.96 0.43 0 2.72 -6.09 0 -0.22 0.1 0c4.2,-9.4 8.38,-18.82 12.52,-28.27l0 -0.12 0.05 0c6.38,-14.57 12.67,-29.18 18.87,-43.84l0 -0.32 0.13 0c2.07,-4.88 4.13,-9.77 6.18,-14.67l0 -1.1 0.46 0c1.96,-4.68 3.91,-9.37 5.85,-14.06l0 -1.71 0.71 0 2.44 -5.92 0 -0.39 0.16 0c2.06,-5.01 4.11,-10.03 6.15,-15.05l0 -0.72 0.29 0c2.02,-4.96 4.02,-9.93 6.02,-14.91l0 -0.86 0.35 0c2,-4.98 3.98,-9.96 5.96,-14.95l0 -0.82 0.32 0c4.14,-10.46 8.24,-20.93 12.3,-31.43l0 -0.11 0.04 0c3.17,-8.2 6.3,-16.41 9.42,-24.64l0 -0.6 0.22 0c3.11,-8.2 6.19,-16.42 9.24,-24.65l0 -0.58 0.21 0 2.95 -7.98 0 -1.48 0.54 0c3,-8.15 5.97,-16.31 8.92,-24.48l0 -0.76 0.27 0 2.88 -8.06 0 -1.4 0.5 0c4.09,-11.46 8.13,-22.95 12.12,-34.45l0 -0.25 0.08 0c1.01,-2.89 2.02,-5.78 3.01,-8.67 2.13,-0.16 4.25,-0.37 6.37,-0.56l0 -0.23 2.61 0c19.49,-1.86 38.63,-4.94 57.32,-9.18l0 -0.28 1.21 0c8.09,-1.86 16.1,-3.94 24.03,-6.22l0 -0.09 0.32 0c3.06,-0.88 6.11,-1.8 9.14,-2.74l0 -0.41 1.32 0c16.83,-5.3 33.23,-11.54 49.15,-18.67l0 -0.26 0.57 0c10.54,-4.73 20.87,-9.84 30.97,-15.33l0 -0.44 0.82 0c1.84,-1.01 3.66,-2.05 5.49,-3.08l0 -0.08 0.13 0c11.86,-6.7 23.39,-13.92 34.56,-21.62l0 -0.46 0.66 0c2.96,-2.04 5.9,-4.13 8.81,-6.24l0 -0.06 0.08 0c4.23,-3.08 8.42,-6.22 12.53,-9.43l0 -0.04 0.05 0c6.44,-5.03 12.72,-10.25 18.88,-15.61l0 -0.16 0.17 0c15.64,-13.64 30.34,-28.33 43.99,-43.96l0 -0.2 0.17 0c5.36,-6.14 10.57,-12.43 15.6,-18.86l0 -0.06 0.05 0c3.21,-4.1 6.35,-8.26 9.41,-12.47l0 -0.15 0.11 0c2.1,-2.88 4.17,-5.79 6.2,-8.72l0 -0.74 0.51 0c7.68,-11.13 14.88,-22.61 21.57,-34.42l0 -0.28 0.15 0c6.8,-12.02 13.07,-24.38 18.78,-37.05l0 -0.8 0.35 0c3.22,-7.18 6.25,-14.47 9.11,-21.84l0 -0.24 0.09 0c7.66,-19.83 13.97,-40.33 18.84,-61.38l0 -1.7 0.39 0c2.32,-10.23 4.29,-20.59 5.91,-31.06l0 -0.49 0.08 0c3.51,-22.8 5.35,-46.16 5.35,-69.96 0,-10.41 -0.35,-20.74 -1.04,-30.97l-1.23 0 0 -14.75c-1.31,-13.13 -3.18,-26.09 -5.58,-38.87l-0.73 0 0 -3.83c-0.79,-4 -1.62,-7.98 -2.52,-11.94l-0.63 0 0 -2.8c-0.77,-3.29 -1.56,-6.57 -2.39,-9.82l-0.77 0 0 -2.98c-0.85,-3.23 -1.73,-6.44 -2.65,-9.64l-0.5 0 0 -1.77c-2.61,-8.99 -5.49,-17.86 -8.63,-26.62l-0.84 0 0 -2.32c-0.87,-2.39 -1.76,-4.77 -2.67,-7.14l-0.48 0 0 -1.25c-0.66,-1.69 -1.33,-3.38 -2,-5.06l-1.15 0 0 -2.85c-0.91,-2.21 -1.83,-4.42 -2.77,-6.61l-0.39 0 0 -0.91c-0.77,-1.81 -1.57,-3.61 -2.37,-5.4l-0.78 0 0 -1.77c-4.57,-10.12 -9.49,-20.06 -14.75,-29.77l-1.02 0 0 -1.87c-0.82,-1.48 -1.64,-2.97 -2.47,-4.44l-0.69 0 0 -1.23c-0.96,-1.7 -1.94,-3.4 -2.92,-5.08l-0.23 0 0 -0.39c-1.78,-3.05 -3.59,-6.07 -5.44,-9.07l-0.87 0 0 -1.4c-1.02,-1.65 -2.05,-3.28 -3.1,-4.91l-0.06 0 0 -0.1c-2.3,-3.61 -4.66,-7.18 -7.06,-10.72 535.56,-177.51 1104.84,-266.04 1686.22,-253.78 1.37,2.02 2.8,4 4.25,5.96l0.86 0 0 1.14c3.87,5.1 8.01,9.99 12.4,14.63l0.22 0 0 0.23c0.93,0.99 1.88,1.96 2.84,2.93l0.31 0 0 0.31c0.96,0.96 1.93,1.9 2.91,2.84l0.25 0 0 0.23c1.03,0.99 2.08,1.97 3.14,2.93l0.01 0 0 0.01c3.65,3.3 7.44,6.46 11.36,9.45l1.26 0 0 0.95c0.99,0.75 2,1.48 3.01,2.2l0.14 0 0 0.1c1.45,1.04 2.92,2.06 4.41,3.06l1.9 0 0 1.25c0.98,0.64 1.98,1.28 2.98,1.9l0.17 0 0 0.11c5.51,3.43 11.23,6.55 17.13,9.35l1.8 0 0 0.85c1.72,0.8 3.47,1.57 5.22,2.31l1.09 0 0 0.45c2.28,0.95 4.59,1.85 6.92,2.7l2.54 0 0 0.91c6.15,2.14 12.46,3.95 18.9,5.4l3.18 0 0 0.69c5.08,1.04 10.25,1.87 15.48,2.46l9.75 0 0 0.84c3.39,0.19 6.81,0.3 10.25,0.3 3.98,0 7.92,-0.15 11.83,-0.41l0 -0.73 8.09 0c10.22,-1.15 20.16,-3.19 29.76,-6.03l0 -0.27 0.94 0c2.87,-0.87 5.72,-1.81 8.53,-2.82l0 -0.34 0.97 0c5.04,-1.84 9.98,-3.93 14.8,-6.21l0 -0.1 0.2 0c2.06,-0.98 4.09,-2 6.11,-3.05l0 -0.1 0.18 0c10.01,-5.27 19.45,-11.49 28.2,-18.53l0 -0.4 0.5 0c0.89,-0.72 1.78,-1.45 2.66,-2.2l0 -0.95 1.13 0c7.57,-6.5 14.58,-13.63 20.95,-21.31l0 -0.77 0.63 0c5.57,-6.8 10.63,-14.04 15.14,-21.64l0 -0.44 0.26 0c0.99,-1.68 1.96,-3.37 2.89,-5.09l0 -1.22 0.66 0c0.85,-1.61 1.69,-3.23 2.5,-4.87l0 -1.44 0.71 0c3.39,-7 6.31,-14.26 8.75,-21.73l0 -0.35 0.11 0c1.12,-3.44 2.14,-6.92 3.04,-10.46l0 -2.15 0.53 0c1.04,-4.27 1.91,-8.6 2.63,-12.99l0 -2.78 0.43 0c1.23,-8.35 1.87,-16.9 1.87,-25.59 0,-8.45 -0.61,-16.75 -1.76,-24.88l-0.54 0 0 -3.53c-1.39,-8.51 -3.38,-16.81 -5.95,-24.86l-0.36 0 0 -1.12c-0.92,-2.81 -1.9,-5.59 -2.96,-8.34l-0.19 0 0 -0.52c-3.33,-8.59 -7.31,-16.85 -11.89,-24.72l-0.73 0 0 -1.24c-1.01,-1.71 -2.04,-3.4 -3.11,-5.07l-0.05 0 0 -0.07c-2.76,-4.32 -5.72,-8.5 -8.84,-12.54l-0.62 0 0 -0.81c-8.96,-11.48 -19.33,-21.81 -30.84,-30.74l-0.7 0 0 -0.53c-5.71,-4.38 -11.7,-8.42 -17.93,-12.08l-1 0 0 -0.59c-1.51,-0.88 -3.05,-1.73 -4.6,-2.57l-1.7 0 0 -0.9c-8.92,-4.68 -18.29,-8.61 -28.03,-11.71l-0.36 0 0 -0.12c-3.57,-1.13 -7.18,-2.13 -10.85,-3.04l-1.77 0 0 -0.43c-4.66,-1.1 -9.41,-2.01 -14.21,-2.72l-4.71 0 0 -0.64c-6.98,-0.84 -14.09,-1.29 -21.3,-1.29 -6.66,0 -13.24,0.38 -19.71,1.1l0 0.83 -6.35 0c-5.33,0.79 -10.57,1.82 -15.73,3.08l0 0.07 -0.3 0c-3.09,0.76 -6.14,1.6 -9.16,2.52l0 0.64 -2.03 0c-2.5,0.79 -4.98,1.65 -7.43,2.55l0 0.6 -1.61 0c-7.05,2.68 -13.89,5.81 -20.47,9.34l0 0.12 -0.22 0c-3.14,1.7 -6.23,3.48 -9.25,5.35l0 0.96 -1.53 0c-1.61,1.03 -3.2,2.07 -4.77,3.14l0 0.02 -0.02 0c-4.35,2.96 -8.55,6.11 -12.6,9.45l0 0.01 -0.02 0c-1.06,0.87 -2.1,1.75 -3.14,2.64l0 0.51 -0.59 0c-0.86,0.75 -1.72,1.51 -2.56,2.28l0 0.88 -0.97 0c-0.73,0.67 -1.46,1.35 -2.18,2.04l0 1.11 -1.16 0c-0.67,0.65 -1.34,1.3 -2,1.97l0 1.19 -1.18 0c-0.66,0.67 -1.32,1.35 -1.97,2.04l0 1.11 -1.05 0c-0.71,0.76 -1.41,1.53 -2.11,2.3l0 0.85 -0.76 0c-1.39,1.57 -2.76,3.15 -4.1,4.77 -91.2,-2.04 -182.13,-1.7 -272.69,0.99l0 0.55 -17.16 0c-16.37,0.54 -32.73,1.15 -49.08,1.84l0 1.32 -29.21 0c-13.41,0.64 -26.8,1.34 -40.18,2.09l0 1.06 -18.77 0c-15.84,0.94 -31.66,1.96 -47.47,3.05l0 0.11 -1.64 0c-12.08,0.83 -24.15,1.69 -36.21,2.6l0 0.55 -7.17 0c-9.18,0.71 -18.36,1.43 -27.53,2.19l0 0.96 -11.35 0c-7.79,0.66 -15.57,1.33 -23.35,2.02l0 1.14 -12.49 0c-7.4,0.68 -14.81,1.37 -22.2,2.08l0 1.07 -11.13 0c-6.81,0.67 -13.62,1.35 -20.42,2.05l0 1.11 -10.84 0c-7.96,0.83 -15.91,1.68 -23.85,2.54l0 0.61 -5.64 0c-18.12,1.99 -36.22,4.08 -54.29,6.26l0 0.05 -0.46 0c-7.21,0.87 -14.42,1.75 -21.62,2.65l0 0.5 -4 0c-6.03,0.76 -12.06,1.51 -18.08,2.29l0 0.87 -6.61 0c-5.16,0.67 -10.31,1.35 -15.47,2.03l0 1.12 -8.38 0c-4.57,0.62 -9.13,1.25 -13.7,1.88l0 1.28 -9.26 0c-4.28,0.59 -8.55,1.2 -12.82,1.81l0 1.34 -9.36 0c-5.29,0.76 -10.59,1.52 -15.88,2.3l0 0.86 -5.73 0c-5.45,0.8 -10.9,1.61 -16.35,2.43l0 0.72 -4.72 0c-5.79,0.88 -11.57,1.79 -17.35,2.69l0 0.46 -3.01 0c-6.36,1 -12.72,2.01 -19.07,3.03l0 0.13 -0.81 0c-12.36,1.98 -24.71,4 -37.05,6.07l0 0.24 -1.39 0c-5.85,0.98 -11.69,1.97 -17.53,2.97l0 0.18 -1.03 0c-4.91,0.84 -9.83,1.69 -14.74,2.55l0 0.61 -3.53 0c-4.08,0.71 -8.16,1.45 -12.24,2.17l0 0.98 -5.45 0c-4.49,0.8 -8.99,1.59 -13.48,2.41l0 0.74 -4.03 0c-3.92,0.72 -7.83,1.44 -11.74,2.17l0 0.99 -5.37 0 -10.4 1.93 0 1.22 -6.39 0 -12.54 2.39 0 0.77 -4.03 0c-3.92,0.75 -7.83,1.52 -11.74,2.28l0 0.87 -4.43 0c-3.78,0.74 -7.56,1.48 -11.34,2.23l0 0.93 -4.73 0c-4.74,0.94 -9.46,1.91 -14.19,2.86l0 0.29 -1.41 0c-4.79,0.97 -9.58,1.92 -14.37,2.91l0 0.24 -1.19 0c-4.86,1 -9.72,2.02 -14.58,3.04l0 0.12 -0.57 0c-14.55,3.03 -29.08,6.11 -43.59,9.27l0 0.19 -0.87 0c-3.92,0.85 -7.83,1.72 -11.74,2.58l0 0.57 -2.6 0c-3.34,0.74 -6.68,1.47 -10.02,2.21l0 0.95 -4.23 0c-3.85,0.86 -7.69,1.74 -11.54,2.61l0 0.54 -2.41 0c-3.4,0.77 -6.81,1.53 -10.21,2.31l0 0.85 -3.71 0c-2.97,0.68 -5.94,1.38 -8.91,2.06l0 1.09 -4.68 0 -7.93 1.84 0 1.32 -5.67 0c-3.37,0.79 -6.74,1.6 -10.1,2.4l0 0.75 -3.16 0 -9.46 2.25 0 0.9 -3.78 0 -8.84 2.14 0 1.02 -4.15 0 -8.47 2.06 0 1.09 -4.45 0 -11.32 2.8 0 0.36 -1.44 0 -11.17 2.79 0 0.36 -1.44 0c-3.73,0.94 -7.45,1.86 -11.18,2.81l0 0.35 -1.36 0c-3.75,0.95 -7.5,1.92 -11.26,2.88l0 0.27 -1.05 0c-8.06,2.07 -16.12,4.16 -24.18,6.26l0 0.05 -0.17 0c-7.3,1.91 -14.61,3.83 -21.91,5.77l0 0.54 -2 0 -10.62 2.85 0 0.3 -1.13 0c-2.78,0.75 -5.56,1.48 -8.33,2.24l0 0.92 -3.4 0c-3.08,0.83 -6.15,1.68 -9.22,2.52l0 0.63 -2.28 0 -7.18 1.97 0 1.18 -4.3 0 -8.32 2.31 0 0.85 -3.03 0 -6.43 1.8 0 1.35 -4.81 0c-2.6,0.73 -5.21,1.45 -7.81,2.19l0 0.97 -3.42 0c-3.07,0.87 -6.13,1.76 -9.19,2.63l0 0.52 -1.81 0 -7.66 2.2 0 0.95 -3.34 0 -9.27 2.68 0 0.48 -1.63 0 -7.83 2.29 0 0.86 -2.93 0 -9.69 2.84 0 0.32 -1.08 0 -8.38 2.49 0 0.66 -2.21 0 -10.41 3.11 0 0.05 -0.14 0c-3.11,0.93 -6.22,1.84 -9.32,2.78l0 0.37 -1.2 0c-27.02,8.17 -53.96,16.56 -80.82,25.16l0 0.07 -0.23 0 -9.23 2.98 0 0.18 -0.56 0 -8.9 2.88 0 0.27 -0.82 0 -8.64 2.8 0 0.36 -1.1 0 -8.37 2.75 0 0.4 -1.21 0 -8.25 2.72 0 0.43 -1.31 0 -8.15 2.7 0 0.46 -1.4 0c-2.69,0.9 -5.37,1.81 -8.07,2.71l0 0.44 -1.32 0 -8.14 2.74 0 0.42 -1.23 0c-2.74,0.92 -5.49,1.84 -8.23,2.77l0 0.38 -1.14 0c-2.78,0.94 -5.55,1.9 -8.32,2.85l0 0.31 -0.9 0 -8.57 2.93 0 0.22 -0.63 0 -8.83 3.03 0 0.12 -0.37 0c-19.15,6.62 -38.26,13.35 -57.32,20.19 -5.68,-2.64 -11.43,-5.16 -17.23,-7.57l-0.78 0 0 -0.32c-5.05,-2.08 -10.14,-4.08 -15.27,-5.99l-0.5 0 0 -0.18c-9.14,-3.38 -18.42,-6.48 -27.83,-9.28l-0.56 0 0 -0.17c-3.5,-1.03 -7.01,-2.03 -10.54,-2.98l-2.08 0 0 -0.56c-8.03,-2.14 -16.16,-4.05 -24.37,-5.75l-0.86 0 0 -0.18c-5.28,-1.08 -10.6,-2.08 -15.95,-2.98l-2.98 0 0 -0.48c-23.74,-3.83 -48.1,-5.83 -72.92,-5.83 -11.55,0 -23,0.44 -34.32,1.28l0 1.88 -19.45 0c-4.05,0.48 -8.08,1.01 -12.09,1.59l0 1.56 -9.97 0c-9.4,1.58 -18.69,3.45 -27.88,5.59l0 0.72 -3.03 0c-2.15,0.52 -4.3,1.05 -6.44,1.6l0 1.56 -5.91 0c-2.24,0.6 -4.48,1.22 -6.7,1.86l0 1.29 -4.41 0c-1.69,0.5 -3.38,1.01 -5.06,1.54l0 1.61 -5.11 0c-1.45,0.47 -2.9,0.95 -4.35,1.43l0 1.73 -5.06 0c-2.53,0.88 -5.05,1.78 -7.56,2.7l0 0.45 -1.23 0c-2.76,1.02 -5.5,2.07 -8.23,3.14l0 0.02 -0.05 0c-1.69,0.66 -3.38,1.33 -5.06,2.02 -17.59,-17.72 -35.37,-35.21 -53.35,-52.49l-1.47 0 0 -1.41 -1.81 -1.74 -1.34 0 0 -1.29 -1.96 -1.87 -1.2 0 0 -1.14 -2.1 -2.01 -1.05 0 0 -1 -2.27 -2.16 -0.89 0 0 -0.84 -2.43 -2.31 -0.72 0 0 -0.68 -2.61 -2.48 -0.54 0 0 -0.51 -2.81 -2.64 -0.35 0 0 -0.33 -3 -2.82 -0.15 0 0 -0.15c-21.55,-20.24 -43.36,-40.17 -65.44,-59.78l-0.8 0 0 -0.72 -2.75 -2.44 -0.41 0 0 -0.36c-5.82,-5.16 -11.67,-10.29 -17.52,-15.41l-1.4 0 0 -1.22 -2.22 -1.93 -0.94 0 0 -0.82 -2.69 -2.34 -0.46 0 0 -0.4c-5.93,-5.14 -11.88,-10.27 -17.85,-15.37l-1.08 0 0 -0.92 -2.62 -2.23 -0.53 0 0 -0.45c-6.02,-5.13 -12.06,-10.24 -18.12,-15.32l-0.81 0 0 -0.68 -2.96 -2.48 -0.19 0 0 -0.16c-6.25,-5.23 -12.52,-10.43 -18.81,-15.61l-0.12 0 0 -0.09c-5.08,-4.19 -10.18,-8.37 -15.3,-12.53l-0.47 0 0 -0.38c-5.03,-4.09 -10.08,-8.17 -15.14,-12.23l-0.63 0 0 -0.51c-3.73,-2.99 -7.46,-5.98 -11.21,-8.96l-1.4 0 0 -1.12 -2.58 -2.03 -0.58 0 0 -0.47c-3.79,-3 -7.6,-6 -11.4,-8.99l-1.22 0 0 -0.96 -2.81 -2.2 -0.34 0 0 -0.26c-3.93,-3.08 -7.87,-6.15 -11.81,-9.2l-0.81 0 0 -0.63c-3.81,-2.95 -7.64,-5.9 -11.47,-8.83l-1.14 0 0 -0.88 -2.97 -2.28 -0.19 0 0 -0.14c-4.08,-3.12 -8.16,-6.22 -12.25,-9.32l-0.36 0 0 -0.28c-4.06,-3.07 -8.12,-6.13 -12.2,-9.18l-0.42 0 0 -0.32c-8.33,-6.24 -16.7,-12.45 -25.09,-18.61l-0.15 0 0 -0.11c-7.15,-5.25 -14.32,-10.47 -21.51,-15.66l-0.56 0 0 -0.41 -8.21 -5.9 -1.26 0 0 -0.9c-4,-2.86 -8.01,-5.72 -12.02,-8.56l-0.59 0 0 -0.42c-2.78,-1.97 -5.56,-3.93 -8.34,-5.89l-1.13 0 0 -0.79 -7.86 -5.52 -1.6 0 0 -1.12 -2.92 -2.03 -0.23 0 0 -0.17c-2.95,-2.05 -5.91,-4.1 -8.86,-6.14l-0.61 0 0 -0.42 -8.55 -5.89 -0.91 0 0 -0.62 -8.32 -5.69 -1.14 0 0 -0.78c-9.52,-6.48 -19.06,-12.9 -28.64,-19.28 -20.54,-13.72 -41.36,-27.16 -62.33,-40.5 342.18,-173.13 700.55,-310.61 1069.07,-410.63 958.8,-260.36 1986.36,-267.21 2977.94,7.54l0 7.79c0,8 0.34,15.92 0.99,23.75l1.31 0 0 12.72c0.81,6.35 1.84,12.62 3.06,18.82l0.1 0 0 0.52c0.8,4.07 1.69,8.1 2.67,12.1l0.48 0 0 1.98c0.63,2.51 1.29,5 1.98,7.48l1.17 0 0 4.04c0.86,2.88 1.75,5.74 2.69,8.58l0.47 0 0 1.44c0.9,2.69 1.85,5.36 2.84,8.02l0.31 0 0 0.82c1.89,5.06 3.93,10.04 6.09,14.95l0.22 0 0 0.51c0.86,1.95 1.74,3.88 2.65,5.8l0.5 0 0 1.09c0.84,1.75 1.69,3.49 2.55,5.22l0.61 0 0 1.22c0.86,1.71 1.75,3.4 2.65,5.09l0.5 0 0 0.96c0.96,1.79 1.95,3.57 2.95,5.35l0.21 0 0 0.37c1.73,3.07 3.52,6.1 5.37,9.09l0.94 0 0 1.51c1,1.61 2.02,3.21 3.06,4.8l0.09 0 0 0.14c2.77,4.24 5.65,8.4 8.63,12.48l0.83 0 0 1.13c2.89,3.9 5.86,7.73 8.93,11.48l0.54 0 0 0.66c0.69,0.84 1.41,1.66 2.11,2.5l1.04 0 0 1.23c0.55,0.64 1.09,1.28 1.64,1.92l1.51 0 0 1.71c8.37,9.47 17.34,18.39 26.88,26.68l1.51 0 0 1.29c0.73,0.63 1.47,1.25 2.2,1.86l0.96 0 0 0.81c0.94,0.79 1.9,1.57 2.86,2.35l0.29 0 0 0.23c3.93,3.18 7.94,6.26 12.04,9.23l0.58 0 0 0.42c5.94,4.29 12.05,8.36 18.33,12.2l0.59 0 0 0.36c1.56,0.95 3.14,1.87 4.72,2.79l1.59 0 0 0.93c1.32,0.75 2.65,1.49 3.98,2.23l2.33 0 0 1.27c10.06,5.43 20.47,10.28 31.21,14.5l0.33 0 0 0.12c2.69,1.05 5.41,2.06 8.14,3.03l1.32 0 0 0.47c2.66,0.93 5.34,1.83 8.03,2.69l4.59 0 0 1.41c2.02,0.6 4.04,1.18 6.07,1.74l3.39 0 0 0.92c3.03,0.79 6.09,1.54 9.16,2.23l0.31 0 0 0.07c5.21,1.18 10.47,2.2 15.79,3.09l6.29 0 0 0.98c6.57,0.95 13.21,1.68 19.91,2.17l11.63 0 0 0.61c3.2,0.11 6.42,0.18 9.65,0.18 3.1,0 6.19,-0.07 9.27,-0.17l0 -0.62 12.01 0c6.58,-0.48 13.09,-1.2 19.54,-2.12l0 -1.03 6.65 0c5.19,-0.87 10.34,-1.87 15.43,-3.01l0 -0.15 0.67 0c2.95,-0.66 5.88,-1.38 8.79,-2.13l0 -1.02 3.76 0c2.97,-0.82 5.93,-1.67 8.86,-2.58l0 -0.57 1.8 0c2.57,-0.82 5.12,-1.68 7.66,-2.56l0 -0.6 1.69 0c2.61,-0.93 5.2,-1.89 7.77,-2.89l0 -0.26 0.7 0c7.28,-2.86 14.41,-6.02 21.38,-9.45l0 -0.02 0.04 0c3.18,-1.55 6.32,-3.17 9.43,-4.84l0 -1.46 2.68 0c1.21,-0.67 2.42,-1.34 3.62,-2.03l0 -1.13 1.95 0c1.47,-0.85 2.92,-1.7 4.36,-2.57l0 -0.58 0.95 0c6.15,-3.76 12.14,-7.75 17.98,-11.94l0 -0.68 0.93 0c3.97,-2.88 7.86,-5.87 11.68,-8.94l0 -0.52 0.65 0c0.84,-0.68 1.68,-1.36 2.51,-2.05l0 -1.11 1.31 0 1.84 -1.56 0 -1.59 1.87 0c10.61,-9.22 20.52,-19.23 29.68,-29.9l0 -1.64 1.39 0c0.59,-0.7 1.18,-1.39 1.76,-2.09l0 -1.07 0.88 0c0.76,-0.93 1.52,-1.88 2.27,-2.82l0 -0.33 0.27 0c3.17,-3.98 6.24,-8.03 9.2,-12.17l0 -0.45 0.32 0c2.05,-2.89 4.04,-5.83 5.99,-8.79l0 -0.67 0.44 0c2.01,-3.09 3.96,-6.22 5.86,-9.38l0 -0.08 0.05 0c1.05,-1.76 2.09,-3.53 3.11,-5.32l0 -0.99 0.55 0c0.88,-1.56 1.75,-3.12 2.6,-4.69l0 -1.62 0.86 0c0.77,-1.46 1.54,-2.92 2.3,-4.39l0 -1.92 0.95 0c0.74,-1.49 1.48,-2.97 2.2,-4.47l0 -1.84 0.86 0c1.91,-4.07 3.73,-8.19 5.45,-12.37l0 -0.24 0.1 0c1.06,-2.56 2.07,-5.14 3.05,-7.73l0 -1.74 0.66 0c0.86,-2.32 1.7,-4.65 2.5,-7l0 -2.46 0.81 0c0.82,-2.45 1.59,-4.93 2.34,-7.41l0 -2.05 0.61 0c0.9,-3.05 1.75,-6.12 2.55,-9.21l0 -3.41 0.83 0c2.3,-9.47 4.13,-19.14 5.47,-28.95l0 -12.06 1.39 0c0.83,-8.85 1.26,-17.82 1.26,-26.9 0,-9.01 -0.43,-17.92 -1.25,-26.72l-1.4 0 0 -12.26c-1.47,-10.84 -3.54,-21.48 -6.19,-31.9l-0.11 0 0 -0.48c-0.78,-3.01 -1.61,-6 -2.48,-8.98l-0.68 0 0 -2.28c-0.72,-2.41 -1.47,-4.8 -2.26,-7.18l-0.89 0 0 -2.7c-0.78,-2.27 -1.58,-4.52 -2.41,-6.77l-0.75 0 0 -1.97c-0.95,-2.51 -1.93,-5.01 -2.95,-7.49l-0.2 0 0 -0.49c-2.58,-6.26 -5.38,-12.41 -8.39,-18.43l-1.07 0 0 -2.17c-0.71,-1.39 -1.44,-2.77 -2.17,-4.14l-0.99 0 0 -1.88c-0.8,-1.49 -1.63,-2.96 -2.45,-4.43l-0.7 0 0 -1.25c-0.97,-1.7 -1.96,-3.38 -2.96,-5.06l-0.2 0 0 -0.34c-3.8,-6.36 -7.84,-12.56 -12.11,-18.59l-0.5 0 0 -0.7c-2.89,-4.05 -5.9,-8.02 -8.99,-11.91l-0.48 0 0 -0.6c-0.68,-0.85 -1.36,-1.71 -2.06,-2.56l-1.09 0 0 -1.33c-0.51,-0.61 -1.03,-1.21 -1.54,-1.82l-1.61 0 0 -1.92c-10.12,-11.8 -21.18,-22.76 -33.07,-32.78l-1.63 0 0 -1.38c-0.72,-0.6 -1.45,-1.18 -2.17,-1.77l-0.99 0 0 -0.8c-0.97,-0.78 -1.94,-1.58 -2.93,-2.36l-0.22 0 0 -0.16c-4.1,-3.22 -8.3,-6.31 -12.57,-9.3l-0.05 0 0 -0.03c-3.07,-2.15 -6.17,-4.25 -9.33,-6.28l-0.13 0 0 -0.08c-1.62,-1.04 -3.27,-2.06 -4.91,-3.07l-1.4 0 0 -0.86c-1.28,-0.78 -2.58,-1.54 -3.88,-2.3l-2.43 0 0 -1.41c-1.03,-0.59 -2.08,-1.16 -3.12,-1.74l-0.03 0 0 -0.02c-1.93,-1.07 -3.87,-2.11 -5.82,-3.13l-0.49 0 0 -0.26c-1.89,-0.99 -3.79,-1.95 -5.7,-2.9l-0.61 0 0 -0.3c-1.98,-0.97 -3.98,-1.92 -5.99,-2.85l-0.32 0 0 -0.15c-4.72,-2.18 -9.5,-4.24 -14.36,-6.16l-1.41 0 0 -0.55c-2.31,-0.9 -4.63,-1.76 -6.97,-2.6l-2.49 0 0 -0.88c-2.25,-0.79 -4.51,-1.55 -6.79,-2.28l-2.67 0 0 -0.86c-2.59,-0.81 -5.2,-1.56 -7.81,-2.29l-1.66 0 0 -0.45c-3.52,-0.96 -7.06,-1.88 -10.64,-2.71l-1.97 0 0 -0.43c-4.53,-1.02 -9.09,-1.92 -13.7,-2.72l-5.23 0 0 -0.87c-6.35,-0.98 -12.78,-1.73 -19.26,-2.29l-12.28 0 0 -0.78c-4.12,-0.18 -8.26,-0.29 -12.43,-0.29 -4.29,0 -8.56,0.1 -12.81,0.29l0 0.78 -12.11 0c-6.54,0.57 -13.02,1.36 -19.43,2.35l0 0.81 -4.89 0c-4.72,0.82 -9.4,1.75 -14.03,2.8l0 0.35 -1.57 0c-3.71,0.86 -7.4,1.8 -11.05,2.8l0 0.36 -1.28 0c-2.74,0.76 -5.47,1.57 -8.18,2.41l0 0.74 -2.32 0c-2.4,0.77 -4.78,1.57 -7.15,2.4l0 0.76 -2.1 0c-2.47,0.88 -4.92,1.8 -7.36,2.76l0 0.39 -1 0c-7.17,2.84 -14.2,5.97 -21.08,9.35l0 0.11 -0.22 0c-2.04,1.01 -4.07,2.05 -6.09,3.1l0 0.06 -0.1 0c-3.15,1.65 -6.27,3.36 -9.36,5.13l0 1.17 -2.02 0c-1.44,0.84 -2.87,1.69 -4.29,2.56l0 0.6 -0.97 0c-6.14,3.76 -12.13,7.76 -17.95,11.96l0 0.66 -0.91 0c-3.98,2.89 -7.89,5.9 -11.71,8.99l0 0.47 -0.57 0 -2.58 2.12 0 1.03 -1.24 0 -1.92 1.64 0 1.52 -1.75 0c-4.85,4.23 -9.56,8.61 -14.11,13.15 -8.2,-2.32 -16.41,-4.56 -24.62,-6.84l-0.52 0 0 -0.15c-3.61,-1 -7.21,-2.01 -10.82,-3.01l-1.8 0 0 -0.5c-7.07,-1.95 -14.15,-3.88 -21.23,-5.81l-0.85 0 0 -0.23c-3.63,-0.98 -7.26,-1.94 -10.88,-2.92l-1.74 0 0 -0.47 -10 -2.69 -2.61 0 0 -0.7c-3.04,-0.81 -6.08,-1.64 -9.12,-2.45l-0.35 0 0 -0.09c-3.89,-1.03 -7.79,-2.04 -11.69,-3.06l-0.92 0 0 -0.24c-3.74,-0.98 -7.48,-1.94 -11.23,-2.92l-1.39 0 0 -0.36 -10.76 -2.79 -1.86 0 0 -0.48c-3.43,-0.89 -6.86,-1.8 -10.29,-2.68l-2.32 0 0 -0.6c-29,-7.4 -58.02,-14.53 -87.05,-21.48l-1.26 0 0 -0.3c-3.96,-0.94 -7.91,-1.91 -11.87,-2.85l-0.75 0 0 -0.18c-4.28,-1.01 -8.56,-1.97 -12.83,-2.97l-2.94 0 0 -0.69 -10.65 -2.47 -1.97 0 0 -0.46c-3.87,-0.89 -7.74,-1.81 -11.61,-2.69l-1.01 0 0 -0.24 -12.84 -2.92 -2.93 0 0 -0.65c-3.73,-0.84 -7.47,-1.67 -11.2,-2.5l-1.41 0 0 -0.32c-4.24,-0.94 -8.48,-1.9 -12.72,-2.84l-3.06 0 0 -0.68c-3.7,-0.82 -7.39,-1.66 -11.09,-2.47l-1.52 0 0 -0.33c-9.31,-2.03 -18.63,-3.99 -27.94,-5.98l-0.45 0 0 -0.1c-20.05,-4.27 -40.11,-8.46 -60.18,-12.52l-2.91 0 0 -0.59c-4.27,-0.86 -8.55,-1.71 -12.83,-2.56l-2.94 0 0 -0.58c-4.37,-0.87 -8.74,-1.72 -13.12,-2.57l-2.65 0 0 -0.52c-4.47,-0.88 -8.94,-1.77 -13.42,-2.64l-2.35 0 0 -0.46c-4.68,-0.91 -9.37,-1.8 -14.06,-2.69l-1.71 0 0 -0.32c-5.04,-0.96 -10.08,-1.89 -15.12,-2.84l-3.81 0 0 -0.71c-4.34,-0.81 -8.67,-1.64 -13.02,-2.44l-2.75 0 0 -0.52c-4.84,-0.89 -9.68,-1.76 -14.53,-2.63l-1.24 0 0 -0.23c-17.47,-3.16 -34.96,-6.23 -52.45,-9.24l-1.17 0 0 -0.2c-5.79,-0.99 -11.59,-1.98 -17.39,-2.95l-1.53 0 0 -0.26c-5.73,-0.96 -11.44,-1.95 -17.17,-2.9l-1.76 0 0 -0.28c-5.94,-0.98 -11.89,-1.91 -17.83,-2.87l-4.25 0 0 -0.68c-5.12,-0.83 -10.23,-1.67 -15.34,-2.47l-3.58 0 0 -0.58c-5.57,-0.88 -11.14,-1.72 -16.7,-2.58l-2.23 0 0 -0.34c-6.16,-0.95 -12.33,-1.88 -18.49,-2.81l-3.59 0 0 -0.55c-5.81,-0.87 -11.62,-1.76 -17.43,-2.61l-1.5 0 0 -0.21c-6.82,-1 -13.64,-1.97 -20.45,-2.94l-1.63 0 0 -0.23c-14.57,-2.09 -29.16,-4.11 -43.74,-6.08l-0.41 0 0 -0.06c-7.66,-1.03 -15.32,-2.09 -22.98,-3.09l-2.26 0 0 -0.31c-7.52,-0.98 -15.04,-1.9 -22.56,-2.85l-5.83 0 0 -0.73c-6.39,-0.81 -12.78,-1.64 -19.17,-2.42l-6.06 0 0 -0.73c-6.88,-0.84 -13.75,-1.62 -20.63,-2.43l-4.61 0 0 -0.54c-7.46,-0.87 -14.93,-1.77 -22.39,-2.61l-2.84 0 0 -0.31c-18.68,-2.1 -37.37,-4.08 -56.05,-6l-0.73 0 0 -0.07c-10.23,-1.05 -20.47,-2.09 -30.71,-3.08l-3.98 0 0 -0.4c-9.96,-0.96 -19.91,-1.85 -29.87,-2.76l-7.98 0 0 -0.73c-9.26,-0.83 -18.51,-1.64 -27.76,-2.42l-6.94 0 0 -0.58c-10.45,-0.87 -20.89,-1.76 -31.33,-2.58l-6.52 0 0 -0.49c-27.66,-2.13 -55.31,-4.08 -82.97,-5.81l-8.5 0 0 -0.54c-15.14,-0.93 -30.28,-1.81 -45.41,-2.62l-14.52 0 0 -0.72c-17.49,-0.89 -34.98,-1.7 -52.47,-2.43l-7.46 0 0 -0.31c-28.28,-1.15 -56.56,-2.11 -84.82,-2.85l-31.89 0 0 -0.76c-82.11,-1.7 -164.13,-1.65 -246.02,0.12l0 0.64 -25.98 0c-27.1,0.71 -54.19,1.56 -81.27,2.65l0 0.51 -11.68 0c-18.19,0.76 -36.38,1.62 -54.56,2.55l0 0.6 -11.53 0c-17.19,0.92 -34.38,1.91 -51.55,2.98l0 0.18 -2.96 0c-14.79,0.92 -29.58,1.91 -44.35,2.96l0 0.19 -2.82 0c-11.68,0.83 -23.36,1.7 -35.04,2.6l0 0.55 -7.13 0c-10.24,0.8 -20.48,1.62 -30.72,2.47l0 0.69 -7.99 0c-9.95,0.84 -19.91,1.66 -29.86,2.56l0 0.59 -6.28 0c-21.05,1.92 -42.09,3.98 -63.11,6.13l0 0.18 -1.79 0c-8.87,0.91 -17.74,1.79 -26.6,2.74l0 0.42 -3.76 0c-8.21,0.88 -16.42,1.81 -24.63,2.73l0 0.42 -3.75 0c-7.16,0.81 -14.33,1.6 -21.48,2.43l0 0.72 -6 0c-7.46,0.88 -14.93,1.77 -22.39,2.68l0 0.48 -3.97 0c-8.14,0.99 -16.28,2.01 -24.42,3.04l0 0.11 -0.89 0c-8.11,1.03 -16.23,2.06 -24.34,3.12l0 0.04 -0.27 0c-14.64,1.91 -29.27,3.89 -43.89,5.92l0 0.38 -2.85 0c-6.41,0.9 -12.82,1.79 -19.23,2.7l0 0.46 -3.13 0c-6.32,0.9 -12.63,1.83 -18.95,2.75l0 0.4 -2.76 0c-5.39,0.79 -10.78,1.55 -16.16,2.36l0 0.8 -5.2 0c-5.63,0.84 -11.25,1.73 -16.88,2.59l0 0.56 -3.64 0c-6.15,0.95 -12.3,1.87 -18.44,2.84l0 0.32 -2.08 0c-19.3,3.04 -38.59,6.21 -57.86,9.45l0 0.01 -0.03 0c-11.56,1.94 -23.11,3.91 -34.66,5.92l0 0.39 -2.24 0c-5.57,0.97 -11.13,1.98 -16.69,2.97l0 0.18 -1 0c-4.93,0.88 -9.85,1.76 -14.77,2.65l0 0.51 -2.81 0c-5.37,0.97 -10.75,1.91 -16.11,2.9l0 0.25 -1.35 0c-4.81,0.89 -9.62,1.81 -14.43,2.71l0 0.44 -2.34 0c-4.48,0.84 -8.95,1.68 -13.43,2.53l0 0.63 -3.35 0c-5.19,0.99 -10.38,1.96 -15.57,2.96l0 0.19 -0.98 0c-4.93,0.95 -9.86,1.95 -14.79,2.91l0 0.25 -1.24 0c-15.37,3.01 -30.73,6.09 -46.08,9.23l0 0.23 -1.14 0c-4.88,1 -9.75,2 -14.63,3.01l0 0.14 -0.72 0c-5.02,1.04 -10.04,2.06 -15.05,3.12l0 0.04 -0.2 0c-4.14,0.87 -8.27,1.78 -12.42,2.66l0 0.49 -2.29 0c-4.5,0.96 -8.99,1.92 -13.48,2.89l0 0.27 -1.25 0c-3.79,0.81 -7.58,1.6 -11.36,2.43l0 0.72 -3.37 0c-4.14,0.9 -8.27,1.84 -12.4,2.76l0 0.39 -1.79 0c-4.66,1.03 -9.32,2.08 -13.99,3.12l0 0.04 -0.16 0c-4.15,0.93 -8.31,1.84 -12.45,2.78l0 0.37 -1.7 0c-8.91,2.01 -17.8,4.08 -26.69,6.14l0 0.17 -0.76 0c-13.43,3.1 -26.84,6.26 -40.25,9.45l0 0.01 -0.06 0c-4.19,1 -8.37,2.02 -12.55,3.02l0 0.14 -0.57 0c-4.01,0.97 -8.04,1.92 -12.05,2.9l0 0.25 -1.06 0c-3.86,0.94 -7.71,1.88 -11.56,2.82l0 0.34 -1.33 0c-3.76,0.92 -7.52,1.88 -11.28,2.81l0 0.34 -1.37 0 -11.25 2.81 0 0.34 -1.4 0c-3.74,0.94 -7.48,1.86 -11.22,2.8l0 0.36 -1.44 0c-3.73,0.94 -7.45,1.91 -11.18,2.86l0 0.29 -1.15 0c-3.82,0.98 -7.64,1.98 -11.46,2.96l0 0.2 -0.75 0 -11.87 3.06 0 0.09 -0.35 0c-20.3,5.26 -40.57,10.63 -60.81,16.12 -6.95,1.89 -13.9,3.79 -20.85,5.7l0 0.26 -0.93 0c-7.06,1.95 -14.1,3.9 -21.15,5.87l0 0.44 -1.58 0 -7.88 2.21 0 0.94 -3.34 0 -9.28 2.63 0 0.53 -1.87 0 -7.59 2.16 0 0.99 -3.47 0 -9.15 2.63 0 0.53 -1.82 0 -7.64 2.2 0 0.95 -3.26 0 -6.21 1.81 0 1.35 -4.61 0 -8 2.35 0 0.8 -2.73 0 -6.73 1.98 0 1.17 -3.94 0 -5.53 1.65 0 1.51 -5.07 0 -7.54 2.26 0 0.89 -2.96 0 -6.51 1.96 0 1.2 -3.94 0 -8.67 2.63 0 0.52 -1.72 0 -7.75 2.38 0 0.77 -2.53 0 -6.93 2.13 0 1.03 -3.32 0 -9.3 2.88 0 0.27 -0.88 0 -8.58 2.68 0 0.48 -1.52 0 -7.94 2.49 0 0.66 -2.11 0c-16.14,5.09 -32.26,10.24 -48.36,15.47l0 0.3 -0.93 0 -8.53 2.78 0 0.38 -1.15 0 -8.31 2.72 0 0.43 -1.31 0 -8.16 2.69 0 0.47 -1.42 0 -8.04 2.67 0 0.48 -1.45 0 -8.01 2.67 0 0.48 -1.45 0 -8.01 2.69 0 0.47 -1.4 0 -8.07 2.72 0 0.43 -1.27 0 -5.04 1.71 0 1.45 -4.28 0 -5.18 1.77 0 1.38 -4.05 0 -5.41 1.85 0 1.31 -3.8 0 -5.66 1.95 0 1.2 -3.48 0 -5.99 2.07 0 1.08 -3.11 0 -6.35 2.21 0 0.95 -2.71 0 -6.75 2.37 0 0.78 -2.24 0 -7.23 2.54 0 0.62 -1.74 0 -7.72 2.73 0 0.42 -1.18 0 -5.13 1.82 0 1.34 -3.74 0 -5.72 2.04 0 1.11 -3.1 0 -6.36 2.28 0 0.87 -2.41 0 -7.06 2.55 0 0.61 -1.68 0 -7.78 2.82 0 0.33 -0.9 0 -8.56 3.12 0 0.04 -0.1 0c-16.82,6.15 -33.61,12.38 -50.37,18.68l0 0.24 -0.63 0c-5.05,1.9 -10.1,3.81 -15.14,5.72l0 0.59 -1.55 0 -7.91 3.01 0 0.15 -0.39 0 -5.92 2.26 0 0.89 -2.31 0 -7.15 2.74 0 0.41 -1.08 0 -5.23 2.03 0 1.13 -2.93 0 -6.54 2.53 0 0.62 -1.61 0 -4.69 1.83 0 1.33 -3.4 0 -6.07 2.36 0 0.79 -2.01 0 -4.3 1.69 0 1.47 -3.72 0 -5.74 2.25 0 0.9 -2.26 0 -4.05 1.6 0 1.55 -3.91 0 -5.55 2.2 0 0.96 -2.39 0 -3.92 1.56 0 1.59 -3.96 0 -5.5 2.2 0 0.96 -2.37 0 -3.94 1.58 0 1.57 -3.89 0 -5.57 2.25 0 0.91 -2.24 0 -7.22 2.93 0 0.22 -0.53 0 -5.78 2.35 0 0.8 -1.96 0 -7.51 3.08 0 0.08 -0.19 0 -6.11 2.51 0 0.64 -1.57 0c-4.74,1.95 -9.47,3.91 -14.2,5.88l0 0.43 -1.05 0c-4.91,2.04 -9.82,4.09 -14.73,6.14l0 0.17 -0.39 0c-22,9.21 -43.95,18.55 -65.84,28.03l0 0.36 -0.82 0 -5.49 2.38 0 0.77 -1.79 0c-4.67,2.03 -9.33,4.06 -13.98,6.1l0 0.21 -0.48 0 -5.83 2.56 0 0.59 -1.34 0 -4.97 2.19 0 0.97 -2.2 0 -4.11 1.81 0 1.34 -3.03 0 -6.43 2.86 0 0.3 -0.68 0 -5.63 2.5 0 0.65 -1.46 0 -4.85 2.17 0 0.99 -2.21 0 -4.1 1.83 0 1.32 -2.94 0 -3.37 1.52 0 1.63 -3.63 0 -5.83 2.63 0 0.53 -1.17 0 -5.14 2.33 0 0.82 -1.81 0 -4.5 2.04 0 1.12 -2.45 0 -3.85 1.75 0 1.4 -3.06 0 -6.41 2.93 0 0.23 -0.49 0 -5.81 2.67 0 0.48 -1.05 0 -5.26 2.42 0 0.73 -1.59 0 -4.72 2.19 0 0.97 -2.1 0 -4.21 1.95 0 1.2 -2.59 0 -13.18 6.15 0 0.16 -0.35 0 -5.96 2.79 0 0.37 -0.78 0 -5.53 2.6 0 0.55 -1.17 0 -5.14 2.42 0 0.73 -1.55 0c-10.16,4.8 -20.3,9.62 -30.43,14.48 113.41,-201.29 253.65,-388.9 418.99,-556.85 7.16,-6.94 13.18,-14.82 18.2,-23.63 14.03,-3.62 28.07,-7.25 42.39,-10.69 462.48,-113.92 942.47,-158.17 1424.06,-129.19 0.48,0.85 0.96,1.69 1.45,2.53l0.41 0 0 0.69c1.76,2.98 3.61,5.9 5.54,8.77l0.77 0 0 1.13c0.47,0.67 0.93,1.35 1.41,2.02l1.74 0 0 2.44c0.96,1.3 1.93,2.6 2.92,3.87l0.24 0 0 0.31c0.74,0.96 1.5,1.9 2.27,2.85l0.88 0 0 1.09c6.23,7.55 13.08,14.57 20.46,20.99l1.62 0 0 1.39c0.7,0.59 1.41,1.18 2.12,1.76l1.04 0 0 0.85c0.96,0.78 1.94,1.55 2.92,2.31l0.23 0 0 0.18c2.75,2.12 5.57,4.16 8.45,6.12l1.01 0 0 0.69c2.93,1.96 5.92,3.84 8.96,5.62l0.51 0 0 0.3c1.68,0.98 3.38,1.93 5.1,2.86l1.2 0 0 0.64c1.64,0.86 3.28,1.7 4.95,2.51l1.36 0 0 0.66c1.81,0.86 3.63,1.69 5.47,2.5l0.84 0 0 0.36c2.28,0.98 4.58,1.91 6.9,2.79l2.56 0 0 0.95c5.78,2.08 11.68,3.88 17.72,5.36l4.36 0 0 1c3.9,0.85 7.83,1.57 11.82,2.15l10.26 0 0 1.2c5.03,0.44 10.13,0.66 15.27,0.66 6.57,0 13.05,-0.37 19.43,-1.08l0 -0.78 6.11 0c5.41,-0.79 10.73,-1.83 15.97,-3.1l0 -0.05 0.2 0c3.12,-0.77 6.21,-1.61 9.26,-2.54l0 -0.62 2 0c2.52,-0.79 5.01,-1.64 7.47,-2.54l0 -0.61 1.59 0c4.83,-1.83 9.56,-3.86 14.18,-6.1l0 -0.21 0.42 0c1.98,-0.97 3.95,-1.97 5.89,-3.01l0 -0.14 0.27 0c5.34,-2.87 10.51,-6.01 15.5,-9.4l0 -0.07 0.09 0c4.32,-2.93 8.5,-6.06 12.52,-9.36l0 -0.1 0.13 0c1.02,-0.84 2.03,-1.69 3.03,-2.55l0 -0.6 0.71 0c6.51,-5.66 12.6,-11.8 18.21,-18.35l0 -0.58 0.49 0c13.3,-15.64 23.89,-33.65 31.06,-53.3l0 -0.32 0.11 0c1.1,-3.03 2.11,-6.1 3.04,-9.21l0 -0.25 0.08 0c1.15,-3.87 2.18,-7.8 3.07,-11.78l0 -0.84 0.19 0c1.3,-5.94 2.29,-11.99 2.97,-18.14l0 -7.1 0.64 0c0.28,-4.05 0.43,-8.14 0.43,-12.26 0,-4.37 -0.16,-8.69 -0.48,-12.97l-0.59 0 0 -6.42c-0.7,-6.38 -1.75,-12.66 -3.12,-18.81l-0.04 0 0 -0.19c-0.69,-3.12 -1.47,-6.22 -2.33,-9.28l-0.82 0 0 -2.77c-3.7,-12.32 -8.71,-24.06 -14.88,-35.08l-0.89 0 0 -1.59c-0.91,-1.59 -1.86,-3.16 -2.82,-4.72l-0.34 0 0 -0.54c-1.88,-3.03 -3.85,-6.01 -5.92,-8.92l-0.38 0 0 -0.53c-3.8,-5.31 -7.89,-10.4 -12.24,-15.24l-0.38 0 0 -0.43c-3.85,-4.25 -7.91,-8.33 -12.16,-12.19l-0.46 0 0 -0.4c-1.03,-0.93 -2.07,-1.85 -3.12,-2.75l-0.03 0 0 -0.03c-3.86,-3.31 -7.86,-6.46 -11.99,-9.43l-0.63 0 0 -0.46c-2.86,-2.04 -5.79,-3.98 -8.78,-5.85l-0.68 0 0 -0.43c-9.87,-6.11 -20.39,-11.27 -31.44,-15.34l-0.1 0 0 -0.04c-3.06,-1.12 -6.15,-2.16 -9.29,-3.12l-0.18 0 0 -0.05c-3.81,-1.16 -7.68,-2.2 -11.6,-3.1l-1.01 0 0 -0.22c-5.59,-1.25 -11.27,-2.23 -17.05,-2.94l-8.19 0 0 -0.8c-4.33,-0.33 -8.7,-0.49 -13.12,-0.49 -5.14,0 -10.23,0.23 -15.27,0.66l0 0.63 -6.06 0c-9.82,1.2 -19.38,3.21 -28.63,5.96l0 0.35 -1.15 0c-2.8,0.86 -5.57,1.78 -8.32,2.78l0 0.38 -1.05 0c-5.01,1.85 -9.92,3.92 -14.72,6.21l0 0.1 -0.19 0c-2.06,0.98 -4.1,2.01 -6.12,3.07l0 0.08 -0.15 0c-10.02,5.3 -19.47,11.54 -28.23,18.61l0 0.32 -0.4 0c-0.92,0.75 -1.85,1.5 -2.76,2.28l0 0.87 -1.02 0c-3.32,2.84 -6.54,5.81 -9.64,8.9 -14.59,-0.93 -29.19,-1.79 -43.78,-2.59l-11.8 0 0 -0.63c-17.94,-0.94 -35.89,-1.78 -53.84,-2.53l-18.7 0 0 -0.74c-27.24,-1.02 -54.47,-1.83 -81.69,-2.41l-53.95 0 0 -0.85c-46.29,-0.48 -92.55,-0.31 -138.77,0.51l0 0.34 -17.24 0c-26.86,0.57 -53.72,1.35 -80.55,2.35l0 0.8 -20.34 0c-20.56,0.86 -41.12,1.85 -61.67,2.96l0 0.2 -3.67 0c-14.55,0.8 -29.1,1.66 -43.64,2.58l0 0.57 -8.99 0c-11.73,0.77 -23.45,1.59 -35.17,2.44l0 0.72 -9.84 0c-11.44,0.85 -22.88,1.75 -34.32,2.68l0 0.47 -5.68 0c-22.3,1.85 -44.59,3.84 -66.86,5.99l0 0.32 -3.34 0c-8.35,0.81 -16.7,1.64 -25.05,2.49l0 0.66 -6.48 0c-7.31,0.76 -14.61,1.53 -21.91,2.32l0 0.84 -7.75 0c-6.88,0.75 -13.76,1.52 -20.64,2.3l0 0.85 -7.35 0c-8.07,0.93 -16.13,1.88 -24.19,2.85l0 0.31 -2.51 0c-23.37,2.82 -46.72,5.81 -70.04,8.96l0 0.5 -3.66 0c-6.14,0.83 -12.28,1.68 -18.42,2.54l0 0.61 -4.37 0c-5.91,0.83 -11.81,1.67 -17.71,2.52l0 0.64 -4.36 0c-5.91,0.86 -11.81,1.72 -17.72,2.6l0 0.55 -3.67 0c-6.14,0.92 -12.28,1.85 -18.41,2.79l0 0.37 -2.37 0c-5.52,0.85 -11.04,1.7 -16.55,2.57l0 0.58 -3.66 0c-6.14,0.97 -12.29,1.95 -18.42,2.95l0 0.2 -1.29 0c-12.2,1.99 -24.38,4.02 -36.56,6.09l0 0.22 -1.29 0c-5.88,1 -11.76,2.02 -17.64,3.04l0 0.12 -0.67 0c-5.04,0.87 -10.07,1.75 -15.1,2.64l0 0.51 -2.85 0c-5.36,0.96 -10.72,1.92 -16.08,2.89l0 0.27 -1.49 0c-4.76,0.86 -9.52,1.74 -14.28,2.62l0 0.53 -2.86 0c-4.3,0.8 -8.61,1.6 -12.91,2.41l0 0.74 -3.94 0c-5,0.95 -9.99,1.89 -14.98,2.85l0 0.31 -1.61 0c-4.73,0.91 -9.44,1.83 -14.16,2.75l0 0.4 -2.08 0c-4.57,0.9 -9.13,1.8 -13.7,2.71l0 0.45 -2.24 0c-20.31,4.04 -40.59,8.21 -60.84,12.51l0 0.1 -0.5 0c-4.04,0.86 -8.08,1.73 -12.12,2.6l0 0.56 -2.62 0c-4.38,0.94 -8.77,1.9 -13.15,2.85l0 0.3 -1.36 0c-3.75,0.82 -7.51,1.64 -11.26,2.47l0 0.69 -3.12 0c-4.22,0.93 -8.43,1.88 -12.65,2.83l0 0.32 -1.44 0 -11.17 2.52 0 0.63 -2.77 0 -13.01 2.98 0 0.18 -0.76 0c-3.95,0.91 -7.9,1.84 -11.85,2.76l0 0.39 -1.7 0 -10.92 2.56 0 0.6 -2.55 0c-8.62,2.04 -17.23,4.11 -25.84,6.19l0 0.12 -0.47 0c-6.21,1.5 -12.41,3.01 -18.61,4.54 -6.26,1.53 -12.52,3.08 -18.77,4.65l0 0.27 -1.1 0 -11.52 2.9 0 0.25 -1 0 -11.61 2.96 0 0.2 -0.78 0 -11.84 3.05 0 0.1 -0.4 0c-7.23,1.87 -14.46,3.76 -21.68,5.67l0 0.64 -2.44 0 -10.18 2.71 0 0.44 -1.67 0 -10.94 2.94 0 0.22 -0.82 0c-11.3,3.04 -22.59,6.13 -33.88,9.25l0 0.21 -0.76 0c-7.09,1.97 -14.17,3.94 -21.26,5.93 -6.18,-0.96 -12.37,-1.88 -18.55,-2.77l-3.59 0 0 -0.51c-6.42,-0.92 -12.85,-1.8 -19.27,-2.65l-5.96 0 0 -0.78c-6.35,-0.82 -12.69,-1.62 -19.03,-2.37l-9.36 0 0 -1.08c-6.33,-0.73 -12.67,-1.42 -19,-2.08l-6.24 0 0 -0.65c-8.94,-0.9 -17.88,-1.73 -26.82,-2.5l-1.56 0 0 -0.14c-13.36,-1.14 -26.7,-2.15 -40.04,-3.02l-16.74 0 0 -1c-16.77,-0.94 -33.53,-1.65 -50.26,-2.15l-19.13 0 0 -0.47c-16.85,-0.33 -33.67,-0.44 -50.47,-0.32l0 0.79 -43.2 0c-33.03,0.98 -65.95,2.8 -98.73,5.47l0 0.84 -9.93 0c-7.21,0.62 -14.42,1.28 -21.62,1.98l0 1.17 -11.43 0c-7.76,0.81 -15.52,1.66 -23.26,2.56l0 0.6 -4.97 0c-15.2,1.81 -30.37,3.79 -45.5,5.97l0 0.34 -2.31 0c-5.54,0.8 -11.08,1.63 -16.61,2.48l0 0.67 -4.3 0c-4.88,0.76 -9.76,1.54 -14.63,2.34l0 0.81 -4.9 0c-4.68,0.78 -9.35,1.58 -14.03,2.4l0 0.76 -4.34 0c-4.87,0.86 -9.73,1.74 -14.58,2.64l0 0.51 -2.81 0c-4.32,0.81 -8.64,1.63 -12.96,2.47l0 0.69 -3.56 0c-5.13,1 -10.25,2.03 -15.37,3.07l0 0.08 -0.4 0c-9.35,1.91 -18.67,3.89 -27.99,5.94l0 0.37 -1.69 0c-3.64,0.81 -7.29,1.61 -10.92,2.44l0 0.71 -3.12 0c-3.17,0.73 -6.33,1.44 -9.5,2.19l0 0.97 -4.09 0c-2.84,0.67 -5.69,1.35 -8.53,2.04l0 1.11 -4.65 0c-2.66,0.65 -5.31,1.32 -7.96,1.98l0 1.18 -4.75 0c-3.68,0.92 -7.35,1.86 -11.02,2.81l0 0.34 -1.34 0c-3.76,0.97 -7.53,1.95 -11.28,2.95l0 0.21 -0.79 0c-11.33,3 -22.64,6.11 -33.91,9.32l0 0.14 -0.48 0c-7.21,2.05 -14.41,4.15 -21.6,6.29l0 0.02 -0.06 0c-3.14,0.93 -6.27,1.88 -9.4,2.83l0 0.32 -1.07 0c-2.8,0.85 -5.6,1.7 -8.39,2.56l0 0.6 -1.92 0c-2.52,0.78 -5.03,1.58 -7.55,2.37l0 0.78 -2.48 0c-2.32,0.74 -4.65,1.47 -6.98,2.21l0 0.94 -2.9 0 -6.56 2.13 0 1.03 -3.18 0c-2.09,0.69 -4.19,1.39 -6.29,2.08l0 1.07 -3.2 0c-17.95,5.99 -35.81,12.25 -53.57,18.76l0 0.17 -0.46 0c-5.11,1.88 -10.22,3.78 -15.31,5.7l0 0.61 -1.63 0c-2.62,0.98 -5.22,2 -7.84,3l0 0.15 -0.4 0c-1.97,0.76 -3.94,1.5 -5.9,2.26l0 0.9 -2.31 0c-2.39,0.92 -4.77,1.87 -7.16,2.81l0 0.34 -0.86 0c-1.81,0.71 -3.63,1.42 -5.45,2.14l0 1.01 -2.54 0c-2.31,0.92 -4.61,1.86 -6.92,2.79l0 0.37 -0.9 0 -5.41 2.18 0 0.97 -2.38 0c-2.36,0.97 -4.72,1.95 -7.08,2.93l0 0.23 -0.55 0c-1.92,0.79 -3.84,1.58 -5.76,2.38l0 0.77 -1.85 0c-4.65,1.95 -9.28,3.92 -13.92,5.9l0 0.41 -0.95 0c-5.02,2.15 -10.04,4.33 -15.04,6.53 -2.03,0.89 -4.06,1.8 -6.09,2.7l0 0.23 -0.51 0c-9.32,4.14 -18.62,8.33 -27.88,12.62l0 0 0 0c-2.11,0.97 -4.2,1.96 -6.3,2.95l0 0.2 -0.45 0 -5.86 2.75 0 0.41 -0.88 0 -5.43 2.58 0 0.57 -1.2 0 -5.11 2.45 0 0.71 -1.47 0c-1.61,0.77 -3.23,1.53 -4.84,2.32l0 0.83 -1.71 0 -4.6 2.26 0 0.89 -1.82 0 -4.49 2.21 0 0.95 -1.93 0 -4.37 2.17 0 0.98 -1.95 0 -4.36 2.19 0 0.97 -1.92 0 -4.39 2.21 0 0.94 -1.87 0c-1.48,0.75 -2.96,1.53 -4.44,2.29l0 0.87 -1.69 0 -4.62 2.38 0 0.77 -1.5 0c-7.94,4.11 -15.85,8.28 -23.73,12.51l0 0.11 -0.2 0c-7.32,3.92 -14.61,7.9 -21.88,11.92l0 0.69 -1.26 0c-1.68,0.93 -3.37,1.85 -5.05,2.79l0 0.37 -0.65 0c-2.94,1.64 -5.88,3.31 -8.81,4.97l0 1.34 -2.37 0c-1.31,0.74 -2.63,1.47 -3.94,2.22l0 0.93 -1.62 0c-1.57,0.9 -3.12,1.81 -4.69,2.71l0 0.44 -0.78 0c-2.89,1.67 -5.8,3.33 -8.68,5.01l0 1.3 -2.21 0 -4.1 2.42 0 0.74 -1.25 0 -5.06 2.98 0 0.17 -0.29 0 -2.86 1.69 0 1.47 -2.44 0 -3.87 2.33 0 0.82 -1.37 0 -4.94 2.98 0 0.17 -0.29 0c-3.07,1.86 -6.12,3.74 -9.17,5.61l0 0.7 -1.14 0c-4.89,3.01 -9.77,6.04 -14.63,9.1l0 0.37 -0.59 0c-8.25,5.18 -16.47,10.41 -24.65,15.72l0 0.05 -0.07 0c-3.14,2.04 -6.26,4.1 -9.39,6.16l0 0.14 -0.23 0c-3.08,2.04 -6.16,4.08 -9.23,6.12l0 0.19 -0.29 0 -2.87 1.93 0 1.23 -1.84 0c-1.49,1 -2.98,1.98 -4.47,2.99l0 0.16 -0.24 0 -2.91 1.97 0 1.19 -1.73 0 -4.58 3.13 0 0.02 -0.04 0 -3.11 2.13 0 1.02 -1.5 0c-2.66,1.84 -5.32,3.68 -7.97,5.53l0 0.78 -1.12 0c-2.78,1.94 -5.57,3.87 -8.34,5.82l0 0.49 -0.69 0 -2.46 1.76 0 1.4 -1.97 0 -4.34 3.09 0 0.06 -0.09 0 -3.07 2.18 0 0.97 -1.36 0c-2.71,1.95 -5.4,3.91 -8.1,5.87l0 0.44 -0.61 0c-12.51,9.1 -24.94,18.34 -37.24,27.75l0 0.64 -0.84 0c-3.93,3.01 -7.86,6.04 -11.78,9.09l0 0.37 -0.48 0 -2.67 2.09 0 1.07 -1.36 0c-3.76,2.94 -7.52,5.89 -11.26,8.86l0 0.6 -0.75 0 -2.4 1.93 0 1.22 -1.53 0c-3.7,2.97 -7.4,5.94 -11.09,8.93l0 0.54 -0.66 0 -2.49 2.04 0 1.11 -1.36 0 -1.8 1.47 0 1.69 -2.05 0c-2.48,2.03 -4.95,4.06 -7.41,6.11l0 0.19 -0.24 0 -2.92 2.44 0 0.72 -0.86 0 -2.29 1.91 0 1.24 -1.48 0c-3.73,3.13 -7.44,6.27 -11.14,9.42l0 0.04 -0.05 0 -3.1 2.65 0 0.51 -0.6 0c-7.2,6.17 -14.36,12.4 -21.48,18.69l0 0.23 -0.27 0c-10.52,9.29 -20.94,18.7 -31.27,28.24l0 0.15 -0.17 0 -2.99 2.75 0 0.41 -0.44 0 -2.71 2.52 0 0.63 -0.67 0 -2.49 2.33 0 0.83 -0.88 0 -2.27 2.13 0 1.02 -1.09 0 -2.06 1.94 0 1.21 -1.3 0 -1.86 1.76 0 1.4 -1.45 0 -1.7 1.62 0 1.53 -1.6 0 -1.56 1.49 0 1.67 -1.74 0 -1.41 1.34 0 1.81 -1.89 0c-20.83,20.08 -41.22,40.69 -61.2,61.78l0 1.31 -1.24 0 -1.91 2.01 0 1.14 -1.08 0 -2.07 2.22 0 0.94 -0.88 0 -2.28 2.44 0 0.71 -0.65 0 -2.5 2.68 0 0.47 -0.44 0 -2.72 2.92 0 0.24 -0.21 0c-5.22,5.64 -10.4,11.32 -15.56,17.04l0 1.88 -1.69 0 -1.46 1.64 0 1.52 -1.36 0 -1.8 2.01 0 1.14 -1.02 0 -2.13 2.38 0 0.78 -0.69 0 -2.46 2.78 0 0.37 -0.33 0c-5.18,5.87 -10.33,11.78 -15.45,17.72l0 1.21 -1.03 0 -2.12 2.46 0 0.69 -0.6 0 -2.55 2.97 0 0.18 -0.16 0c-9.53,11.18 -18.94,22.49 -28.23,33.92l0 0.78 -0.64 0 -2.52 3.11 0 0.05 -0.03 0c-2.1,2.58 -4.2,5.16 -6.27,7.76l0 1.7 -1.35 0 -1.81 2.27 0 0.88 -0.7 0 -2.45 3.1 0 0.06 -0.05 0c-2.09,2.64 -4.18,5.28 -6.26,7.93l0 1.53 -1.19 0 -1.97 2.52 0 0.63 -0.48 0c-1.94,2.49 -3.9,4.97 -5.82,7.48l0 1.99 -1.52 0 -1.64 2.14 0 1.01 -0.77 0 -2.38 3.13 0 0.03 -0.02 0 -3.14 4.11 0 2.19 -1.67 0 -1.48 1.97 0 1.19 -0.89 0 -2.26 3.03 0 0.12 -0.09 0c-2.08,2.77 -4.16,5.54 -6.22,8.33l0 1.13 -0.85 0c-2.89,3.91 -5.76,7.84 -8.62,11.78l0 0.84 -0.61 0c-2.97,4.08 -5.91,8.18 -8.85,12.29l0 0.33 -0.24 0c-5.22,7.31 -10.4,14.65 -15.53,22.05l0 0.03 -0.02 0c-2.11,3.03 -4.2,6.09 -6.29,9.14l0 0.32 -0.22 0c-0.97,1.43 -1.96,2.84 -2.93,4.27l0 2.04 -1.38 0 -1.78 2.64 0 0.51 -0.35 0 -2.8 4.18 0 2.13 -1.44 0 -1.72 2.55 0 0.61 -0.4 0 -2.75 4.14 0 2.16 -1.43 0 -1.72 2.62 0 0.54 -0.36 0 -2.8 4.25 0 2.06 -1.36 0 -1.79 2.75 0 0.4 -0.26 0c-0.97,1.49 -1.93,3 -2.9,4.49l0 1.82 -1.17 0 -1.98 3.08 0 0.07 -0.05 0c-1.03,1.61 -2.08,3.21 -3.11,4.82l0 1.49 -0.94 0c-1.8,2.83 -3.58,5.67 -5.36,8.5l0 0.97 -0.61 0c-1.91,3.03 -3.81,6.07 -5.7,9.12l0 0.34 -0.21 0 -2.95 4.77 0 1.54 -0.94 0c-1.8,2.91 -3.59,5.83 -5.37,8.75l0 0.71 -0.43 0c-2.55,4.19 -5.09,8.39 -7.61,12.62 -3.68,6.03 -7.3,12.08 -10.88,18.16l0 0.76 -0.45 0 -2.71 4.61 0 1.7 -0.98 0 -2.17 3.75 0 2.56 -1.48 0 -1.67 2.93 0 0.22 -0.13 0 -3.03 5.32 0 0.99 -0.55 0 -2.6 4.63 0 1.68 -0.94 0 -2.22 4 0 2.31 -1.27 0 -1.88 3.42 0 2.89 -1.57 0 -1.59 2.91 0 3.39 -1.83 0 -1.32 2.48 0 3.83 -2.05 0 -1.1 2.1 0 1.06 -0.56 0 -2.6 4.94 0 1.37 -0.71 0 -2.44 4.71 0 1.59 -0.83 0 -2.33 4.56 0 1.75 -0.89 0 -2.26 4.47 0 1.84 -0.92 0 -2.24 4.46 0 1.85 -0.91 0 -2.24 4.54 0 1.77 -0.87 0c-4,8.17 -7.91,16.38 -11.75,24.62l0 0.61 -0.28 0c-0.97,2.08 -1.92,4.15 -2.87,6.23l0 0.08 -0.04 0c-1.05,2.28 -2.08,4.56 -3.12,6.85l0 2.61 -1.18 0 -1.97 4.41 0 1.9 -0.84 0 -2.31 5.22 0 1.09 -0.48 0c-0.89,2.05 -1.79,4.1 -2.68,6.15l0 3.31 -1.42 0 -1.73 4.05 0 2.26 -0.96 0 -2.2 5.22 0 4.24 -1.76 0 -1.39 3.36 0 2.95 -1.22 0 -1.94 4.78 0 4.69 -1.89 0 -1.26 3.17 0 3.13 -1.24 0 -1.91 4.87 0 4.6 -1.79 0 -1.37 3.55 0 2.76 -1.05 0 -2.1 5.54 0 0.76 -0.29 0c-0.96,2.57 -1.92,5.14 -2.87,7.71l0 1.76 -0.64 0c-1.92,5.22 -3.81,10.46 -5.67,15.71l0 0.06 -0.02 0c-1.05,2.98 -2.09,5.96 -3.13,8.95l0 0.51 -0.17 0c-1.01,2.9 -2,5.8 -2.98,8.7l0 0.76 -0.26 0c-0.98,2.89 -1.94,5.78 -2.9,8.67l0 0.8 -0.26 0c-0.97,2.95 -1.94,5.91 -2.89,8.87l0 3.74 -1.21 0 -1.95 6.15 0 3.32 -1.04 0 -2.11 6.84 0 5.77 -1.75 0 -1.4 4.67 0 4.8 -1.41 0 -1.75 5.97 0 6.64 -1.9 0 -1.25 4.46 0 5.01 -1.4 0c-0.59,2.14 -1.17,4.28 -1.76,6.43l0 3.03 -0.81 0c-0.79,2.94 -1.57,5.87 -2.34,8.82l0 3.8 -0.99 0c-0.73,2.83 -1.45,5.66 -2.17,8.5l0 0.96 -0.24 0c-0.98,3.92 -1.96,7.85 -2.91,11.78l0 0.84 -0.2 0c-1.01,4.16 -1.99,8.33 -2.95,12.5l0 0.11 -0.03 0c-1.06,4.59 -2.11,9.19 -3.13,13.79l0 1.98 -0.43 0c-0.93,4.23 -1.83,8.46 -2.72,12.69l0 6.24 -1.3 0c-0.63,3.07 -1.25,6.15 -1.86,9.22l0 6.55 -1.28 0c-0.64,3.29 -1.26,6.58 -1.87,9.87l0 9.06 -1.65 0c-0.51,2.84 -1.01,5.68 -1.51,8.53l0 10.39 -1.75 0c-0.48,2.89 -0.94,5.77 -1.4,8.66l0 7.11 -1.11 0c-0.71,4.59 -1.38,9.19 -2.04,13.79l0 5.14 -0.73 0c-0.79,5.65 -1.55,11.3 -2.27,16.97l-0.16 1.27 0 0.68 -0.08 0c-1.11,8.85 -2.13,17.7 -3.07,26.57l0 14.44 -1.46 0c-0.61,6.38 -1.17,12.76 -1.7,19.14l0 21.86 -1.61 0c-0.6,9.14 -1.12,18.29 -1.54,27.44l0 16.72 -0.68 0c-0.65,18.91 -0.92,37.84 -0.81,56.78l1.49 0 0 56.99c1.12,24.12 2.87,48.24 5.25,72.33l1.06 0 0 10.3c0.53,4.98 1.08,9.96 1.66,14.94l1.49 0 0 12.25c0.42,3.28 0.84,6.55 1.28,9.83l1.88 0 0 13.61c0.55,3.87 1.12,7.75 1.71,11.62l1.44 0 0 9.29c0.84,5.32 1.72,10.63 2.63,15.94l0.52 0 0 3.08c1.83,10.55 3.78,21.09 5.84,31.62l0.47 0 0 2.4c0.68,3.41 1.37,6.81 2.07,10.22l1.09 0 0 5.21c0.52,2.47 1.04,4.94 1.58,7.4l1.57 0 0 7.22c0.63,2.85 1.28,5.7 1.92,8.56l1.24 0 0 5.39c0.56,2.41 1.13,4.82 1.7,7.22l1.45 0 0 6.04 1.61 6.58 1.54 0 0 6.2 1.64 6.42 1.52 0 0 5.83 1.79 6.78 1.36 0 0 5.05c0.97,3.58 1.96,7.15 2.95,10.72l0.21 0 0 0.74c1.69,6.04 3.43,12.07 5.2,18.1 2.84,34.09 -0.63,67.78 -9.71,99.63 -1.11,2.71 -1.96,5.49 -2.56,8.42 -11.1,33.85 -29.08,65.8 -52.83,93.61 -2.4,2.77 -4.54,5.71 -6.72,8.55l-50.09 67.42 0 0.01 -0.01 0 -336.4 452.83 -0.22 -0.25c-2.52,3.63 -4.9,7.27 -7.16,10.91l0 0.16 -0.1 0c-1.05,1.69 -2.07,3.38 -3.06,5.07l0 1.24 -0.71 0c-4.59,7.93 -8.55,15.86 -11.9,23.79l0 1.44 -0.61 0c-3.77,9.14 -6.72,18.29 -8.86,27.44l0 0.95 -0.2 0c-1.31,5.77 -2.29,11.54 -2.95,17.32l0 1.6 -0.18 0c-0.98,9.46 -1.07,18.92 -0.3,28.39l0.48 0 0 4.94c0.65,5.71 1.6,11.42 2.89,17.14l0.26 0 0 1.13c0.89,3.83 1.92,7.66 3.09,11.49l0.07 0 0 0.21c0.95,3.08 1.99,6.17 3.12,9.25l0.03 0 0 0.09c0.77,2.07 1.57,4.15 2.41,6.22l0.75 0 0 1.8c4.15,9.9 9.26,19.82 15.32,29.74l0.45 0 0 0.74c6.31,10.26 13.64,20.53 21.98,30.8l0.1 0 0 0.13c0.82,1.01 1.64,2.02 2.49,3.03l0.66 0 0 0.79c4.01,4.79 8.23,9.59 12.68,14.38 10.86,11.72 23.44,23.48 37.71,35.3l0.08 0 0 0.06c3.79,3.13 7.69,6.26 11.71,9.4l0.91 0 0 0.71c3.75,2.91 7.61,5.83 11.57,8.75l1.04 0 0 0.77c3.95,2.89 8,5.79 12.14,8.69l0.48 0 0 0.34c8.86,6.19 18.17,12.38 27.95,18.59l0.44 0 0 0.28c4.82,3.06 9.75,6.12 14.8,9.18l0.97 0 0 0.59c4.88,2.95 9.86,5.91 14.95,8.87l0.82 0 0 0.48c26.22,15.23 55.18,30.53 86.86,45.89 4.16,9.18 6.53,20.91 7.38,35.17 1.96,34.42 -5.61,78.61 -22.74,132.66 -0.82,2.66 -1.52,5.34 -2.11,8.02l0 1.73 -0.37 0c-1.92,9.38 -2.53,18.83 -2.06,28.1 0.23,16.18 2.01,32.11 5.24,47.6l0.34 0 0 1.59c2.91,13.53 6.94,26.71 12.01,39.41l0.61 0 0 1.5c5.72,14.06 12.74,27.53 20.97,40.23 3.24,5.15 6.77,10.18 10.47,15.05l0.1 0 0 0.13c1.71,2.25 3.46,4.47 5.24,6.65 -0.71,1.89 -1.41,3.79 -2.09,5.7l0 0.14 -0.04 0c-1.08,3.04 -2.12,6.1 -3.11,9.18l0 0.28 -0.09 0c-2.33,7.25 -4.4,14.6 -6.16,21.95 -1.2,5.13 -2.27,10.27 -3.21,15.45l0 13.07 -2.09 0c-0.4,2.88 -0.75,5.78 -1.07,8.67l0 19.72 -1.49 0c-0.45,10.48 -0.37,21 0.28,31.54l1.21 0 0 14.33c0.28,2.58 0.6,5.17 0.95,7.75l2.21 0 0 13.93c0.49,2.72 1.02,5.44 1.6,8.15l1.55 0 0 6.97c0.76,3.26 1.58,6.5 2.46,9.75l0.6 2.2 0.09 0 0 0.36c0.85,3.05 1.73,6.09 2.67,9.1l0.49 0 0 1.58c0.83,2.64 1.7,5.27 2.61,7.89l0.54 0 0 1.57c0.94,2.65 1.91,5.28 2.91,7.89l0.25 0 0 0.64c2.81,7.29 5.9,14.44 9.24,21.44l0.22 0 0 0.46c0.94,1.96 1.9,3.91 2.89,5.85l0.26 0 0 0.53c0.99,1.94 2,3.86 3.03,5.78l0.13 0 0 0.25c2.83,5.27 5.81,10.44 8.94,15.52l0.52 0 0 0.84c6.63,10.69 13.9,20.94 21.77,30.7l0.31 0 0 0.39c4.86,6.02 9.94,11.84 15.24,17.46 9.87,10.6 20.56,20.41 31.97,29.46l0.1 0 0 0.08c3.54,2.81 7.15,5.53 10.82,8.19 -0.47,3.41 -0.91,6.81 -1.35,10.2l0 0.46 -0.06 0c-1.14,8.82 -2.17,17.55 -3.1,26.2l0 5.34 -0.56 0c-0.99,9.69 -1.86,19.28 -2.59,28.74l0 2.81 -0.21 0c-3.51,46.91 -3.75,91.06 -0.74,132.46l0.95 0 0 11.76c1.47,16.51 3.47,32.57 6,48.17l0.31 0 0 1.99c0.77,4.64 1.59,9.22 2.46,13.79l0.69 0 0 3.68c0.8,4.06 1.64,8.08 2.51,12.09l0.64 0 0 2.92c0.97,4.32 1.97,8.61 3.03,12.85l0.13 0 0 0.53c1.82,7.29 3.76,14.48 5.84,21.55l0.47 0 0 1.61c0.78,2.63 1.58,5.25 2.41,7.85l0.74 0 0 2.31c0.77,2.4 1.55,4.78 2.35,7.15l0.81 0 0 2.35c0.82,2.38 1.65,4.76 2.5,7.11l0.65 0 0 1.8c0.94,2.57 1.9,5.13 2.87,7.67l0.28 0 0 0.73c1.97,5.08 4.01,10.09 6.13,15.04l0.18 0 0 0.44c0.85,1.97 1.7,3.92 2.57,5.87l0.59 0 0 1.31c0.75,1.67 1.51,3.34 2.28,5l0.87 0 0 1.86c0.7,1.48 1.4,2.97 2.12,4.44l1.04 0 0 2.12c0.68,1.4 1.37,2.81 2.07,4.19l1.08 0 0 2.11c0.72,1.4 1.43,2.81 2.17,4.2l0.98 0 0 1.86c0.8,1.49 1.6,2.97 2.4,4.45l0.76 0 0 1.39c0.91,1.65 1.84,3.28 2.77,4.92l0.38 0 0 0.67c2.93,5.12 5.94,10.15 9.06,15.1l0.41 0 0 0.63c1.88,2.98 3.81,5.92 5.76,8.83l0.54 0 0 0.81c1.96,2.92 3.95,5.8 5.98,8.65l0.33 0 0 0.48c0.65,0.9 1.31,1.78 1.96,2.68l1.2 0 0 1.65c1.93,2.63 3.88,5.24 5.87,7.81l0.43 0 0 0.57c4.02,5.17 8.18,10.23 12.44,15.2l0.18 0 0 0.21c0.85,0.98 1.68,1.97 2.54,2.95l0.62 0 0 0.69c0.72,0.83 1.46,1.64 2.19,2.46l0.96 0 0 1.07 1.89 2.09 1.26 0 0 1.36 1.67 1.79 1.49 0 0 1.61 1.49 1.54 1.66 0 0 1.73c8.17,8.44 16.72,16.56 25.68,24.33 4.68,4.04 9.46,7.97 14.33,11.8l1 0 0 0.77c1.02,0.8 2.04,1.59 3.06,2.38l0.09 0 0 0.07c1.36,1.04 2.73,2.06 4.1,3.08l2.21 0 0 1.65 2.06 1.51 1.1 0 0 0.78c2.6,1.87 5.23,3.71 7.88,5.53l1.58 0 0 1.07c1.02,0.7 2.04,1.4 3.07,2.08l0.08 0 0 0.06c10.08,6.69 20.53,12.97 31.33,18.87l0.22 0 0 0.12c1.87,1.02 3.75,2.03 5.65,3.03l0.65 0 0 0.34c1.81,0.95 3.61,1.89 5.44,2.82l0.87 0 0 0.43c1.82,0.92 3.66,1.82 5.5,2.72l0.81 0 0 0.4c1.93,0.93 3.88,1.84 5.83,2.75l0.48 0 0 0.23c12.12,5.64 24.65,10.82 37.59,15.55l0.26 0 0 0.09c2.86,1.04 5.74,2.06 8.64,3.06l0.82 0 0 0.28c2.86,0.98 5.74,1.94 8.64,2.87l0.83 0 0 0.27c3.07,0.99 6.17,1.95 9.28,2.89l3.33 0 0 1c2.5,0.74 5.01,1.45 7.54,2.15l1.93 0 0 0.55c7.49,2.06 15.13,3.97 22.87,5.76l2.36 0 0 0.55c3.97,0.9 7.96,1.77 12,2.61l3.77 0 0 0.75c4.19,0.83 8.4,1.64 12.65,2.4l3.12 0 0 0.56c5.32,0.92 10.71,1.78 16.13,2.59l2.8 0 0 0.42c6.94,1.01 13.97,1.92 21.09,2.74l4.14 0 0 0.45c9.9,1.08 19.96,1.98 30.19,2.7l13.97 0 0 0.87c46.16,2.47 95.57,1.34 148.24,-3.37l0 -0.65 7.08 0c8.08,-0.77 16.23,-1.62 24.46,-2.56l0 -0.6 5.16 0c14.86,-1.74 29.96,-3.75 45.31,-6.04l0 -0.26 1.77 0c5.68,-0.86 11.4,-1.75 17.16,-2.68l0 -0.48 3 0c5.28,-0.86 10.58,-1.75 15.92,-2.67l0 -0.48 2.73 0c5.37,-0.94 10.77,-1.92 16.2,-2.92l0 -0.24 1.31 0c4.8,-0.88 9.62,-1.8 14.46,-2.74l0 -0.41 2.16 0c5.62,-1.09 11.27,-2.22 16.95,-3.38 135.94,13.88 262.26,65.39 366.85,145.21 106.64,81.83 190.63,193.03 238.67,323.96 1.93,6.34 4.55,12.83 7.8,19.08 1.29,2.46 2.68,4.85 4.14,7.16l0.56 0 0 0.85c1.93,3 4,5.87 6.2,8.61l0.1 0 0 0.13c23.58,29.36 61.2,43.64 97.78,38.16zm2252.28 -2540.08l-630.24 543.98c-2.88,-1.4 -5.79,-2.74 -8.74,-4.01l-1.58 0 0 -0.66c-2.04,-0.87 -4.11,-1.69 -6.19,-2.49l-3.27 0 0 -1.22c-1.85,-0.67 -3.72,-1.32 -5.59,-1.93l-0.72 0 0 -0.24c-7.56,-2.47 -15.33,-4.5 -23.27,-6.07l-5.12 0 0 -0.95c-5.76,-0.98 -11.61,-1.73 -17.54,-2.21l-7.69 0 0 -0.48c-2.88,-0.12 -5.77,-0.18 -8.67,-0.18 -2.38,0 -4.74,0.06 -7.1,0.14l0 0.52 -9.21 0c-7.57,0.61 -15.02,1.65 -22.33,3.07l0 0.09 -0.44 0c-4.1,0.81 -8.17,1.74 -12.18,2.8l0 0.35 -1.29 0c-2.75,0.74 -5.48,1.54 -8.17,2.39l0 0.77 -2.34 0c-2.4,0.79 -4.77,1.62 -7.13,2.5l0 0.65 -1.7 0c-4.78,1.84 -9.47,3.85 -14.07,6.03l0 0.28 -0.59 0c-1.93,0.92 -3.83,1.87 -5.72,2.85l0 0.3 -0.57 0c-1.93,1.01 -3.84,2.05 -5.74,3.12l0 0.04 -0.06 0c-6.52,3.69 -12.82,7.73 -18.86,12.11l0 0.5 -0.69 0c-4.1,2.99 -8.08,6.14 -11.93,9.42l0 0.05 -0.05 0c-1.05,0.89 -2.08,1.78 -3.1,2.7l0 0.45 -0.51 0c-0.89,0.8 -1.77,1.6 -2.65,2.41l0 0.74 -0.8 0c-4.1,3.85 -8.04,7.87 -11.81,12.04l0 0.58 -0.52 0c-0.88,0.99 -1.77,1.99 -2.64,3l0 0.16 -0.13 0c-3.25,3.78 -6.36,7.7 -9.33,11.73l0 0.88 -0.65 0c-4.31,5.92 -8.31,12.07 -11.97,18.45l0 0.48 -0.26 0c-0.99,1.74 -1.95,3.49 -2.89,5.27l0 1.04 -0.55 0c-0.89,1.7 -1.76,3.41 -2.61,5.15l0 1.15 -0.56 0c-3.38,7.05 -6.35,14.33 -8.9,21.8l0 0.28 -0.1 0c-1.1,3.24 -2.11,6.52 -3.05,9.83l0 2.79 -0.76 0c-2.56,9.59 -4.42,19.45 -5.55,29.55l0 8.3 -0.76 0c-0.33,4.7 -0.5,9.44 -0.5,14.23 0,4.76 0.17,9.48 0.5,14.16l0.76 0 0 8.31c1.13,10.09 3,19.96 5.57,29.54l0.74 0 0 2.71c0.94,3.34 1.98,6.64 3.09,9.91l0.06 0 0 0.18c1.81,5.3 3.85,10.5 6.09,15.59l0.22 0 0 0.51c0.86,1.95 1.74,3.88 2.66,5.8l0.49 0 0 1c0.87,1.79 1.78,3.55 2.7,5.31l0.46 0 0 0.87c0.97,1.83 1.96,3.64 2.99,5.44l0.16 0 0 0.29c3.7,6.45 7.76,12.66 12.13,18.63l0.49 0 0 0.67c3.86,5.23 7.98,10.27 12.32,15.1l0.3 0 0 0.34c0.86,0.95 1.73,1.88 2.61,2.82l0.54 0 0 0.58c2.89,3.05 5.88,6.01 8.95,8.88l0.51 0 0 0.47c0.98,0.91 1.96,1.8 2.95,2.68l0.21 0 0 0.18c4.95,4.4 10.11,8.55 15.48,12.44l0.29 0 0 0.21c2.91,2.11 5.89,4.15 8.92,6.1l0.54 0 0 0.35c11.58,7.4 23.99,13.64 37.03,18.57l0.82 0 0 0.32c2.7,1 5.42,1.95 8.16,2.84l1.31 0 0 0.42c3.1,0.99 6.24,1.9 9.42,2.73l0.04 0 0 0.01c4.59,1.21 9.26,2.26 13.97,3.15l1.8 0 0 0.34c7.95,1.42 16.06,2.36 24.3,2.81l7.24 0 0 0.27c1.32,0.02 2.63,0.05 3.95,0.05 1.84,0 3.68,-0.03 5.52,-0.08l0 -0.24 5.68 0c8.78,-0.48 17.41,-1.53 25.86,-3.1l0 -0.05 0.27 0c4.16,-0.78 8.28,-1.68 12.35,-2.71l0 -0.45 1.69 0c2.61,-0.68 5.2,-1.42 7.77,-2.21l0 -0.94 2.96 0c9.89,-3.21 19.44,-7.15 28.58,-11.77l0 -0.85 1.65 0c1.57,-0.81 3.12,-1.64 4.66,-2.49l0 -0.66 1.19 0c1.72,-0.97 3.43,-1.95 5.12,-2.97l0 -0.19 0.32 0c7.6,-4.57 14.86,-9.64 21.76,-15.14l0 -0.63 0.77 0c10.05,-8.1 19.3,-17.16 27.61,-27.02l0 -1.37 1.16 0c0.67,-0.81 1.34,-1.64 2,-2.47l0 -0.68 0.55 0c5.54,-6.98 10.63,-14.34 15.22,-22.03l0 -0.05 0.03 0c1.07,-1.79 2.11,-3.61 3.12,-5.43l0 -0.88 0.49 0c0.92,-1.66 1.81,-3.33 2.67,-5.02l0 -1.29 0.64 0c0.86,-1.71 1.7,-3.44 2.51,-5.18l0 -1.13 0.53 0c2.09,-4.56 4.02,-9.21 5.78,-13.95l0 -1.82 0.66 0c0.88,-2.44 1.71,-4.9 2.49,-7.38l0 -2.08 0.65 0c0.9,-2.98 1.74,-5.99 2.51,-9.03l0 -0.43 0.11 0c1.18,-4.74 2.2,-9.53 3.04,-14.39l0 -4.54 0.74 0c1.47,-9.76 2.23,-19.76 2.23,-29.93 0,-10.66 -0.85,-20.98 -2.46,-31.16l27.88 -24.07 0 0 0 0 299.64 -258.61 0 -0.02 0.02 0 230.22 -198.7 0 -0.01 0.01 0 63.3 -54.63c1.77,1.41 3.57,2.8 5.37,4.16l0.72 0 0 0.54c2.61,1.97 5.26,3.9 7.94,5.77l1.52 0 0 1.06c1.02,0.71 2.05,1.4 3.08,2.1l0.07 0 0 0.05c1.57,1.05 3.14,2.08 4.72,3.1l1.59 0 0 1.02c2.86,1.81 5.75,3.58 8.67,5.29l0.79 0 0 0.46c7.54,4.39 15.3,8.45 23.25,12.16l1.99 0 0 0.91c1.67,0.76 3.35,1.51 5.04,2.24l1.27 0 0 0.56c2.08,0.89 4.18,1.75 6.29,2.59l0.02 0 0 0.01c5.7,2.28 11.49,4.38 17.36,6.3l1.56 0 0 0.52c2.89,0.92 5.8,1.8 8.73,2.64l0.73 0 0 0.21c3.74,1.05 7.5,2.03 11.29,2.94l1.33 0 0 0.32c11.57,2.71 23.41,4.72 35.47,5.99l11.85 0 0 1.01c6.2,0.4 12.46,0.6 18.76,0.6 5.35,0 10.66,-0.16 15.93,-0.45l0 -1.16 14.57 0c5.71,-0.6 11.37,-1.38 16.97,-2.31l0 -0.84 4.89 0c4.72,-0.87 9.4,-1.85 14.04,-2.95l0 -0.21 0.87 0c2.88,-0.69 5.74,-1.42 8.59,-2.2l0 -0.95 3.48 0c2.01,-0.57 4,-1.17 5.99,-1.78l0 -1.38 4.26 0c2.8,-0.91 5.59,-1.86 8.35,-2.86l0 -0.29 0.83 0c7.22,-2.64 14.31,-5.56 21.25,-8.75l0 -0.71 1.53 0c1.6,-0.75 3.19,-1.5 4.78,-2.28l0 -0.88 1.77 0c1.52,-0.75 3.04,-1.51 4.54,-2.3l0 -0.85 1.62 0c1.57,-0.83 3.13,-1.67 4.69,-2.52l0 -0.64 1.13 0c1.74,-0.96 3.46,-1.95 5.18,-2.95l0 -0.2 0.34 0c9.73,-5.71 19.09,-11.96 28.04,-18.73l0 -0.2 0.26 0c0.97,-0.73 1.94,-1.47 2.9,-2.22l0 -0.93 1.21 0c0.65,-0.51 1.29,-1.05 1.94,-1.57l0 -1.58 1.97 0c3.63,-2.96 7.18,-6 10.65,-9.12l0 -0.35 0.4 0c0.92,-0.83 1.84,-1.68 2.75,-2.53l0 -0.62 0.67 0c4.1,-3.81 8.09,-7.73 11.95,-11.77l0 -0.85 0.81 0c0.79,-0.83 1.56,-1.68 2.35,-2.52l0 -0.63 0.58 0c0.86,-0.94 1.72,-1.88 2.57,-2.83l0 -0.33 0.29 0c3.14,-3.51 6.2,-7.11 9.17,-10.77l0 -1.84 1.48 0c0.56,-0.7 1.12,-1.4 1.68,-2.11l0 -1.05 0.8 0c0.79,-1.02 1.57,-2.04 2.35,-3.07l0 -0.08 0.07 0c4.4,-5.86 8.59,-11.88 12.55,-18.07l0 -0.86 0.53 0c3.13,-4.92 6.1,-9.95 8.93,-15.07l0 -0.7 0.39 0c0.94,-1.71 1.86,-3.44 2.76,-5.17l0 -1.14 0.6 0c0.87,-1.68 1.72,-3.38 2.56,-5.08l0 -1.23 0.61 0c0.87,-1.78 1.71,-3.59 2.54,-5.4l0 -0.9 0.43 0c0.93,-2.05 1.84,-4.11 2.73,-6.18l0 -0.13 0.05 0c1.07,-2.49 2.11,-4.99 3.1,-7.52l0 -1.95 0.74 0c0.83,-2.14 1.63,-4.3 2.42,-6.48l0 -2.98 1.05 0c0.72,-2.1 1.42,-4.2 2.1,-6.32l0 -3.14 0.99 0c0.76,-2.45 1.48,-4.92 2.16,-7.4l0 -2.06 0.56 0c2.31,-8.52 4.23,-17.19 5.75,-25.99l0 -5.56 0.92 0c0.96,-6.27 1.69,-12.62 2.24,-19.02l0 -12.52 0.79 0c0.18,-4.07 0.28,-8.16 0.28,-12.27 0,-4.34 -0.11,-8.66 -0.3,-12.96l-0.77 0 0 -11.85c-0.57,-6.63 -1.34,-13.2 -2.35,-19.69l-0.81 0 0 -4.9c-0.81,-4.71 -1.74,-9.39 -2.78,-14.03l-0.37 0 0 -1.69c-0.85,-3.67 -1.79,-7.31 -2.77,-10.93l-0.39 0 0 -1.42c-0.75,-2.7 -1.52,-5.38 -2.35,-8.04l-0.8 0 0 -2.5c-0.75,-2.34 -1.52,-4.66 -2.33,-6.96l-0.82 0 0 -2.35c-0.86,-2.39 -1.74,-4.76 -2.65,-7.11l-0.51 0 0 -1.33c-1.93,-4.89 -3.99,-9.7 -6.17,-14.45l-0.14 0 0 -0.29c-0.93,-2.01 -1.87,-4.02 -2.85,-6.01l-0.3 0 0 -0.61c-0.94,-1.91 -1.9,-3.81 -2.88,-5.7l-0.28 0 0 -0.53c-1.01,-1.94 -2.04,-3.87 -3.1,-5.78l-0.05 0 0 -0.09c-0.57,-1.03 -1.13,-2.05 -1.71,-3.07l-1.44 0 0 -2.51c-0.74,-1.27 -1.49,-2.54 -2.25,-3.79l-0.91 0 0 -1.51c-0.98,-1.61 -1.98,-3.21 -2.99,-4.8l-0.16 0 0 -0.26c-1.99,-3.11 -4.05,-6.18 -6.16,-9.21l-0.15 0 0 -0.22c-2.93,-4.21 -5.97,-8.35 -9.11,-12.39l-0.35 0 0 -0.46c-0.71,-0.9 -1.43,-1.8 -2.15,-2.7l-1.01 0 0 -1.25c-0.51,-0.63 -1.02,-1.27 -1.53,-1.9l-1.62 0 0 -1.93c-3.06,-3.64 -6.2,-7.2 -9.42,-10.69l-0.04 0 0 -0.04c-0.97,-1.04 -1.92,-2.09 -2.9,-3.11l-0.26 0 0 -0.27c-3,-3.13 -6.07,-6.2 -9.2,-9.2l-0.26 0 0 -0.25c-1.03,-0.98 -2.07,-1.94 -3.11,-2.9l-0.05 0 0 -0.04c-3.48,-3.23 -7.04,-6.37 -10.68,-9.42l-1.93 0 0 -1.62c-0.63,-0.52 -1.27,-1.02 -1.91,-1.54l-1.25 0 0 -1.01c-0.89,-0.71 -1.79,-1.43 -2.7,-2.14l-0.45 0 0 -0.35c-4.04,-3.15 -8.18,-6.18 -12.39,-9.11l-0.23 0 0 -0.16c-3.02,-2.11 -6.09,-4.16 -9.2,-6.15l-0.26 0 0 -0.17c-1.59,-1.01 -3.18,-2.01 -4.79,-2.99l-1.52 0 0 -0.91c-1.25,-0.76 -2.52,-1.5 -3.78,-2.24l-2.53 0 0 -1.45c-1.01,-0.58 -2.02,-1.14 -3.04,-1.7l-0.11 0 0 -0.06c-1.91,-1.06 -3.83,-2.09 -5.77,-3.1l-0.54 0 0 -0.28c-1.88,-0.98 -3.78,-1.93 -5.68,-2.87l-0.63 0 0 -0.31c-1.99,-0.97 -3.99,-1.92 -6,-2.85l-0.31 0 0 -0.14c-4.74,-2.18 -9.55,-4.24 -14.43,-6.17l-1.34 0 0 -0.51c-2.35,-0.91 -4.72,-1.79 -7.1,-2.64l-2.36 0 0 -0.83c-2.3,-0.81 -4.62,-1.58 -6.94,-2.32l-2.52 0 0 -0.81c-2.66,-0.83 -5.34,-1.6 -8.03,-2.35l-1.44 0 0 -0.39c-3.62,-0.98 -7.25,-1.91 -10.93,-2.76l-1.68 0 0 -0.37c-4.66,-1.04 -9.36,-1.97 -14.09,-2.79l-4.84 0 0 -0.8c-6.56,-1.02 -13.2,-1.79 -19.9,-2.35l-11.64 0 0 -0.74c-4.24,-0.19 -8.5,-0.3 -12.78,-0.3 -4.17,0 -8.32,0.11 -12.46,0.28l0 0.76 -11.97 0c-6.58,0.55 -13.11,1.31 -19.57,2.29l0 0.86 -5.18 0c-4.62,0.8 -9.2,1.7 -13.74,2.71l0 0.45 -2.04 0c-3.56,0.82 -7.08,1.72 -10.58,2.67l0 0.48 -1.79 0c-2.57,0.72 -5.13,1.46 -7.67,2.24l0 0.92 -2.89 0c-2.2,0.7 -4.39,1.43 -6.58,2.19l0 0.96 -2.72 0c-2.26,0.81 -4.51,1.64 -6.74,2.51l0 0.64 -1.7 0c-4.76,1.88 -9.44,3.88 -14.07,5.99l0 0.32 -0.68 0c-1.89,0.87 -3.77,1.75 -5.63,2.66l0 0.5 -1 0c-1.78,0.87 -3.55,1.76 -5.31,2.67l0 0.48 -0.92 0c-1.8,0.94 -3.6,1.9 -5.39,2.88l0 0.28 -0.49 0c-3.02,1.67 -6.01,3.39 -8.97,5.16l0 1.14 -1.9 0c-1.48,0.9 -2.95,1.82 -4.41,2.75l0 0.41 -0.65 0c-7.38,4.71 -14.52,9.77 -21.43,15.12l0 0.65 -0.84 0c-0.78,0.6 -1.54,1.22 -2.31,1.83l0 1.32 -1.65 0c-3.73,3.03 -7.39,6.14 -10.97,9.34l0 0.13 -0.14 0c-1.01,0.9 -2.01,1.82 -3.01,2.74l0 0.41 -0.45 0c-0.9,0.84 -1.81,1.67 -2.71,2.52l0 0.63 -0.66 0c-3,2.87 -5.93,5.8 -8.8,8.8l0 0.67 -0.66 0c-0.84,0.88 -1.66,1.79 -2.49,2.68l0 0.47 -0.44 0c-0.91,0.99 -1.82,1.97 -2.72,2.96l0 0.2 -0.17 0c-3.18,3.54 -6.28,7.17 -9.29,10.87l0 1.74 -1.41 0c-0.58,0.73 -1.17,1.45 -1.74,2.18l0 0.98 -0.75 0c-0.81,1.04 -1.61,2.08 -2.41,3.13l0 0.02 -0.01 0c-4.42,5.85 -8.63,11.86 -12.61,18.04l0 0.89 -0.56 0c-1.98,3.09 -3.89,6.24 -5.74,9.42l0 0.04 -0.03 0c-1.06,1.82 -2.11,3.65 -3.13,5.49l0 0.82 -0.46 0c-0.91,1.66 -1.81,3.33 -2.69,5.01l0 1.3 -0.69 0c-0.84,1.61 -1.66,3.24 -2.47,4.88l0 1.43 -0.71 0c-0.83,1.7 -1.64,3.42 -2.44,5.14l0 1.16 -0.55 0c-3.25,7.09 -6.23,14.34 -8.91,21.73l0 3.51 -1.24 0c-0.66,1.89 -1.3,3.79 -1.92,5.7l0 3.76 -1.21 0c-0.67,2.17 -1.32,4.34 -1.94,6.53l0 2.93 -0.8 0c-0.83,3.06 -1.62,6.14 -2.36,9.24l0 0.23 -0.05 0c-1.16,4.89 -2.2,9.84 -3.1,14.82l0 4.1 -0.7 0c-1,6.02 -1.83,12.1 -2.45,18.24l0 13.3 -1.03 0c-0.29,5.34 -0.46,10.71 -0.46,16.12 0,5.17 0.14,10.31 0.41,15.43l1.08 0 0 13.95c0.38,3.78 0.83,7.54 1.35,11.28l1.8 0 0 11.27c0.99,5.55 2.14,11.05 3.44,16.49zm-878.28 -1715.62c-1.72,0 -3.44,0.03 -5.15,0.08l0 0.36 -7.42 0c-16.07,1.1 -31.55,4.29 -46.2,9.3l0 0.16 -0.47 0c-5.21,1.8 -10.31,3.83 -15.3,6.08l0 0.23 -0.5 0c-1.96,0.89 -3.89,1.82 -5.81,2.78l0 0.38 -0.76 0c-1.87,0.94 -3.72,1.91 -5.55,2.92l0 0.23 -0.42 0c-11.14,6.16 -21.57,13.45 -31.12,21.73l0 0.35 -0.39 0c-0.93,0.81 -1.85,1.62 -2.76,2.45l0 0.7 -0.76 0c-4.13,3.8 -8.09,7.79 -11.86,11.95l0 0.67 -0.59 0c-0.87,0.96 -1.72,1.93 -2.56,2.92l0 0.24 -0.21 0c-13.23,15.47 -23.89,33.21 -31.34,52.55l0 1.07 -0.4 0c-0.97,2.57 -1.89,5.18 -2.75,7.81l0 1.65 -0.54 0c-0.94,3.01 -1.82,6.05 -2.61,9.12l0 0.34 -0.09 0c-1.22,4.75 -2.23,9.57 -3.07,14.46l0 4.47 -0.7 0c-1.24,8.54 -1.88,17.27 -1.88,26.15 0,9.34 0.7,18.51 2.07,27.47l0.51 0 0 3.15c0.73,4.26 1.6,8.47 2.62,12.62l0.54 0 0 2.18c0.91,3.52 1.93,7 3.04,10.44l0.11 0 0 0.34c3.17,9.74 7.15,19.11 11.85,28.05l0.77 0 0 1.46c0.88,1.63 1.78,3.24 2.7,4.84l0.45 0 0 0.77c3.69,6.31 7.75,12.37 12.15,18.16l0.47 0 0 0.62c9.82,12.82 21.32,24.29 34.17,34.08l0.52 0 0 0.4c5.86,4.43 11.99,8.51 18.37,12.21l0.56 0 0 0.33c1.69,0.97 3.4,1.91 5.12,2.83l1.19 0 0 0.63c1.65,0.86 3.31,1.71 5,2.52l1.31 0 0 0.63c7.2,3.42 14.66,6.37 22.35,8.84l2.88 0 0 0.89c2.7,0.82 5.42,1.57 8.17,2.26l1.29 0 0 0.32c4.63,1.12 9.33,2.07 14.08,2.83l4.85 0 0 0.72c7.87,1.04 15.91,1.59 24.07,1.59 7.87,0 15.63,-0.51 23.24,-1.48l0 -0.83 5.68 0c8.85,-1.42 17.49,-3.47 25.87,-6.12l0 -0.18 0.55 0c3.01,-0.97 5.97,-2.01 8.91,-3.12l0 -0.04 0.11 0c8.72,-3.31 17.11,-7.27 25.12,-11.82l0 -0.8 1.39 0c1.66,-0.96 3.3,-1.96 4.92,-2.97l0 -0.18 0.29 0c3.12,-1.95 6.18,-3.99 9.17,-6.13l0 -0.18 0.25 0c5.41,-3.88 10.59,-8.04 15.53,-12.48l0 -0.14 0.15 0c1.01,-0.91 2.01,-1.83 3,-2.76l0 -0.39 0.42 0c3.12,-2.96 6.13,-6.03 9.04,-9.2l0 -0.26 0.25 0c4.39,-4.81 8.51,-9.87 12.37,-15.13l0 -0.64 0.47 0c5.75,-7.93 10.87,-16.34 15.3,-25.16l0 -0.08 0.04 0c3.62,-7.23 6.78,-14.73 9.42,-22.48l0 -2.75 0.91 0c0.8,-2.48 1.55,-4.98 2.25,-7.5l0 -1.96 0.53 0c1,-3.78 1.87,-7.6 2.62,-11.46l0 -1.16 0.22 0c1.53,-8.11 2.52,-16.41 2.94,-24.86l0 -6.68 0.19 0c0.01,-0.75 0.03,-1.49 0.03,-2.24 0,-1.36 -0.02,-2.72 -0.05,-4.07l-0.17 0 0 -4.86c-0.66,-13.54 -2.81,-26.7 -6.28,-39.3l-0.03 0 0 -0.12c-0.87,-3.15 -1.82,-6.27 -2.85,-9.34l-0.31 0 0 -0.91c-2.48,-7.28 -5.42,-14.35 -8.77,-21.17l-0.69 0 0 -1.38c-0.83,-1.66 -1.68,-3.3 -2.56,-4.93l-0.59 0 0 -1.08c-0.97,-1.76 -1.97,-3.5 -3,-5.23l-0.16 0 0 -0.27c-4.56,-7.65 -9.67,-14.94 -15.27,-21.81l-0.5 0 0 -0.62c-0.7,-0.85 -1.42,-1.69 -2.14,-2.53l-1.01 0 0 -1.19c-6.56,-7.54 -13.72,-14.53 -21.42,-20.89l-0.66 0 0 -0.54c-6.83,-5.59 -14.06,-10.68 -21.67,-15.24l-0.41 0 0 -0.24c-1.67,-1 -3.36,-1.97 -5.06,-2.91l-1.25 0 0 -0.69c-1.56,-0.85 -3.13,-1.66 -4.72,-2.46l-1.59 0 0 -0.79c-4.03,-1.99 -8.15,-3.83 -12.35,-5.52l-0.27 0 0 -0.11c-2.69,-1.08 -5.41,-2.09 -8.16,-3.05l-1.3 0 0 -0.45c-2.89,-0.97 -5.81,-1.87 -8.76,-2.7l-0.7 0 0 -0.19c-4.08,-1.13 -8.21,-2.12 -12.39,-2.96l-0.23 0 0 -0.05c-7.6,-1.53 -15.38,-2.57 -23.3,-3.11l-5.09 0 0 -0.27c-2.48,-0.11 -4.97,-0.17 -7.47,-0.17zm-625.17 785.89c-2.58,2.97 -5.12,5.98 -7.63,9.01l0 0.36 -0.29 0c-4.22,5.12 -8.33,10.34 -12.33,15.65l0 0.12 -0.09 0c-8.97,11.93 -17.36,24.32 -25.14,37.12l0 0.73 -0.45 0c-3.1,5.13 -6.11,10.33 -9.01,15.59l0 0.18 -0.1 0c-1.03,1.87 -2.05,3.74 -3.06,5.63l0 0.68 -0.36 0c-0.94,1.77 -1.87,3.55 -2.79,5.33l0 0.98 -0.5 0c-0.9,1.75 -1.78,3.51 -2.66,5.28l0 1.03 -0.5 0c-0.9,1.81 -1.78,3.64 -2.65,5.47l0 0.84 -0.4 0c-4.37,9.25 -8.45,18.67 -12.22,28.25l0 0.14 -0.05 0c-1.06,2.69 -2.09,5.4 -3.1,8.12l0 1.34 -0.49 0c-1.7,4.61 -3.32,9.26 -4.87,13.94 -15.05,7.8 -30.09,15.65 -45.11,23.56l0 0.35 -0.66 0 -5.65 2.98 0 0.17 -0.33 0c-13.58,7.18 -27.14,14.4 -40.67,21.69l0 0.39 -0.74 0 -5.57 3.01 0 0.15 -0.28 0c-10.16,5.48 -20.3,11 -30.41,16.56 -8.71,4.78 -17.41,9.58 -26.09,14.42l0 0.56 -1.01 0 -5.29 2.95 0 0.2 -0.36 0c-5.14,2.88 -10.28,5.76 -15.42,8.65l0 0.82 -1.45 0 -4.85 2.73 0 0.42 -0.74 0 -5.57 3.15 0 0.01 -0.01 0 -9.45 5.37 0 0.93 -1.64 0 -4.67 2.67 0 0.49 -0.86 0 -5.45 3.12 0 0.03 -0.06 0 -9.4 5.4 0 0.91 -1.58 0 -4.73 2.74 0 0.42 -0.73 0c-5.02,2.9 -10.03,5.81 -15.04,8.73l0 0.73 -1.26 0 -5.05 2.95 0 0.2 -0.35 0c-5.15,3.01 -10.29,6.03 -15.42,9.05l0 0.41 -0.7 0c-20.89,12.32 -41.68,24.77 -62.39,37.38l0 0.48 -0.78 0c-5,3.04 -10,6.1 -14.99,9.16l0 0.3 -0.48 0 -8.98 5.52 0 0.79 -1.28 0 -5.03 3.11 0 0.04 -0.07 0 -9.4 5.83 0 0.48 -0.77 0 -8.69 5.41 0 0.9 -1.43 0 -4.88 3.05 0 0.1 -0.15 0 -9.31 5.85 0 0.46 -0.73 0 -8.73 5.51 0 0.8 -1.26 0c-4.84,3.07 -9.68,6.14 -14.51,9.22l0 0.24 -0.38 0 -9.09 5.82 0 0.49 -0.77 0c-13.1,8.4 -26.16,16.87 -39.19,25.39 -5.05,-5.49 -10.29,-10.8 -15.7,-15.93l-1.11 0 0 -1.04 -2.28 -2.11 -0.88 0 0 -0.81c-0.86,-0.78 -1.73,-1.57 -2.6,-2.35l-0.55 0 0 -0.48c-1.01,-0.9 -2.02,-1.79 -3.04,-2.67l-0.12 0 0 -0.1c-5,-4.33 -10.14,-8.5 -15.4,-12.52l-0.37 0 0 -0.27c-2.7,-2.05 -5.43,-4.07 -8.2,-6.04l-1.26 0 0 -0.89c-11.04,-7.76 -22.59,-14.85 -34.59,-21.19l-0.11 0 0 -0.05c-1.99,-1.05 -4.01,-2.09 -6.03,-3.1l-0.27 0 0 -0.14c-2.06,-1.02 -4.13,-2.03 -6.21,-3.01l-0.1 0 0 -0.05c-9.97,-4.71 -20.22,-8.91 -30.71,-12.57l-0.83 0 0 -0.29c-2.88,-1 -5.78,-1.95 -8.69,-2.86l-0.78 0 0 -0.25c-3.93,-1.22 -7.89,-2.37 -11.89,-3.44 13.03,-246.4 60.15,-488.69 139.6,-719.89 5.61,-15.83 11.26,-31.7 16.87,-47.6 36.56,22.15 72.49,45.11 107.96,68.73 159.57,106.04 308.63,227.1 445.82,361.9zm-100.16 400.16c1.21,5.4 2.54,10.76 3.94,16.09l0.28 0 0 1.07c0.75,2.8 1.52,5.6 2.32,8.39l0.84 0 0 2.87c0.96,3.27 1.95,6.51 2.98,9.75l0.17 0 0 0.52c0.96,2.99 1.95,5.97 2.96,8.94l0.2 0 0 0.54c2.87,8.35 5.98,16.58 9.32,24.69l0.14 0 0 0.34c0.82,2 1.66,3.99 2.51,5.97l0.64 0 0 1.48c6.35,14.64 13.45,28.88 21.24,42.68l0.84 0 0 1.48c0.92,1.62 1.85,3.23 2.79,4.83l0.37 0 0 0.62c3,5.11 6.11,10.17 9.31,15.15l0.15 0 0 0.24c1.99,3.1 4.03,6.17 6.09,9.22l0.22 0 0 0.32c2.81,4.15 5.7,8.25 8.64,12.3l0.82 0 0 1.11c2.06,2.8 4.15,5.59 6.27,8.35l0.04 0 0 0.06c0.8,1.04 1.6,2.07 2.41,3.1l0.74 0 0 0.94c17.72,22.52 37.51,43.33 59.1,62.14l0.83 0 0 0.73c0.94,0.81 1.87,1.62 2.81,2.43l0.35 0 0 0.29c4.94,4.21 9.98,8.32 15.1,12.32l0.67 0 0 0.52c9.75,7.58 19.81,14.77 30.17,21.56l1.37 0 0 0.91c2.82,1.83 5.67,3.63 8.54,5.4l0.92 0 0 0.57c16.82,10.36 34.36,19.66 52.53,27.82l1.1 0 0 0.49c2.02,0.91 4.06,1.79 6.09,2.66l0.21 0 0 0.09c1.07,0.46 2.12,0.92 3.19,1.36 -124.77,352.38 -301.21,681.82 -521.78,978.33 -11.64,15.58 -23.59,31.38 -35.45,46.97 -137.2,-250.1 -234.13,-522.85 -284.81,-808.74 18.81,-7.65 36.7,-17.06 53.5,-28l0 -0.76 1.16 0c2.8,-1.84 5.56,-3.73 8.3,-5.65l0 -0.66 0.93 0c2.88,-2.05 5.72,-4.14 8.53,-6.27l0 -0.04 0.05 0c6.49,-4.94 12.79,-10.13 18.88,-15.55l0 -0.22 0.25 0c0.97,-0.87 1.94,-1.75 2.9,-2.63l0 -0.52 0.58 0c0.86,-0.8 1.72,-1.59 2.58,-2.39l0 -0.77 0.8 0c0.79,-0.74 1.57,-1.49 2.35,-2.24l0 -0.91 0.95 0c5.11,-4.98 10.05,-10.14 14.82,-15.45l0 -0.32 0.3 0c4.25,-4.75 8.36,-9.63 12.32,-14.64l0 -1.13 0.89 0c0.76,-0.97 1.52,-1.93 2.26,-2.91l0 -0.25 0.19 0c6.71,-8.77 12.96,-17.89 18.74,-27.35l0 -1.04 0.64 0c3.08,-5.09 6.02,-10.28 8.82,-15.55l0 -0.22 0.11 0c1.04,-1.95 2.05,-3.92 3.05,-5.89l0 -0.42 0.2 0c1.01,-2 1.99,-4.01 2.95,-6.04l0 -0.26 0.13 0c2.17,-4.57 4.23,-9.2 6.18,-13.89l0 -1.89 0.77 0c0.82,-1.99 1.61,-3.99 2.38,-6l0 -0.3 0.12 0c1.05,-2.74 2.06,-5.49 3.04,-8.25l0 -1.22 0.42 0c2.15,-6.19 4.11,-12.47 5.89,-18.83l0 -0.09 0.02 0c1.12,-4.03 2.17,-8.08 3.13,-12.17l0 -3.6 0.82 0c0.85,-3.8 1.62,-7.61 2.33,-11.46l0 -1.16 0.22 0c1.18,-6.51 2.16,-13.09 2.94,-19.74l0 -8.65 0.87 0c0.84,-9.36 1.27,-18.84 1.27,-28.42 0,-5.77 0,-11.26 -0.44,-16.81 116.67,-77.5 236.59,-149.98 359.28,-217.38l16.44 -8.96zm-1203.66 1294.33c2.11,-3.01 4.17,-6.05 6.19,-9.13l0 -1.19 0.77 0c1.89,-2.89 3.73,-5.82 5.54,-8.77l0 -0.69 0.42 0c0.92,-1.52 1.83,-3.06 2.73,-4.59l0 -1.72 1 0c2.95,-5.09 5.76,-10.25 8.46,-15.49l0 -0.28 0.15 0c1.02,-1.99 2.02,-3.99 3.01,-6l0 -0.31 0.15 0c1.02,-2.09 2.02,-4.18 3,-6.29l0 -0.02 0.01 0c2.2,-4.74 4.3,-9.55 6.3,-14.4l0 -1.37 0.56 0c2.03,-4.98 3.94,-10.01 5.75,-15.1l0 -0.67 0.23 0c2.2,-6.23 4.22,-12.54 6.08,-18.92l0 -0.01 0 0c1.11,-3.83 2.16,-7.7 3.15,-11.59l0 -4.18 1.03 0c0.75,-3.1 1.46,-6.22 2.12,-9.36l0 -3.25 0.68 0c2.55,-12.57 4.44,-25.39 5.63,-38.4l0 -12.07 0.91 0c0.4,-6.96 0.61,-13.97 0.61,-21.04 0,-7.77 -0.25,-15.48 -0.74,-23.12l-0.78 0 0 -10c-0.76,-8.32 -1.81,-16.56 -3.13,-24.7l-0.02 0 0 -0.11c-0.86,-5.26 -1.83,-10.48 -2.91,-15.66l-0.25 0 0 -1.16c-0.81,-3.84 -1.69,-7.66 -2.64,-11.45l-0.51 0 0 -2.05c-1.72,-6.76 -3.63,-13.44 -5.73,-20.03l-0.58 0 0 -1.81c-0.83,-2.57 -1.7,-5.12 -2.58,-7.66l-0.57 0 0 -1.62c-0.94,-2.63 -1.9,-5.24 -2.9,-7.84l-0.26 0 0 -0.68c-1.95,-5.09 -4.03,-10.12 -6.22,-15.09l-0.08 0 0 -0.2c-1.85,-4.18 -3.76,-8.32 -5.76,-12.42l-0.55 0 0 -1.13c-0.86,-1.73 -1.73,-3.46 -2.61,-5.18l-0.55 0 0 -1.07c-0.91,-1.75 -1.83,-3.5 -2.76,-5.23l-0.39 0 0 -0.73c-1.02,-1.87 -2.05,-3.73 -3.09,-5.58l-0.07 0 0 -0.11c-2.38,-4.21 -4.83,-8.35 -7.38,-12.45 124.71,-127.64 255.64,-248.16 392.15,-361.01 5.02,1.7 9.93,3.47 15.17,5.11 1.21,7.18 2.45,14.35 3.71,21.51l0.08 0 0 0.42c0.9,5.12 1.81,10.24 2.74,15.35l0.41 0 0 2.23c0.83,4.52 1.66,9.03 2.5,13.54l0.66 0 0 3.45c0.97,5.17 1.96,10.32 2.96,15.48l0.19 0 0 0.97c0.96,4.93 1.94,9.87 2.93,14.8l0.22 0 0 1.13c0.98,4.88 1.98,9.76 2.98,14.64l0.18 0 0 0.86c1.02,4.97 2.07,9.94 3.12,14.91l0.03 0 0 0.16c2,9.42 4.04,18.83 6.14,28.23l0.17 0 0 0.77c0.88,3.95 1.77,7.9 2.66,11.84l0.5 0 0 2.16c1.03,4.54 2.08,9.08 3.14,13.62l0.01 0 0 0.03c0.98,4.2 1.97,8.39 2.97,12.58l0.18 0 0 0.76c0.95,3.96 1.9,7.91 2.86,11.86l0.3 0 0 1.22c0.92,3.8 1.86,7.6 2.8,11.4l0.35 0 0 1.42c0.93,3.73 1.86,7.46 2.8,11.19l0.36 0 0 1.39c0.94,3.75 1.9,7.49 2.86,11.23l0.29 0 0 1.13c3.99,15.44 8.1,30.84 12.33,46.19l0.29 0 0 1.03c1.94,7.02 3.92,14.04 5.91,21.05l0.4 0 0 1.37c1.97,6.91 3.96,13.81 5.99,20.71l0.31 0 0 1.09 2.48 8.37 0.68 0 0 2.27c1.02,3.45 2.05,6.9 3.1,10.35l0.05 0 0 0.18 2.83 9.28 0.33 0 0 1.08c4.09,13.34 8.27,26.65 12.56,39.92l0.05 0 0 0.19c1,3.09 2,6.19 3.01,9.28l0.15 0 0 0.46c0.98,3 1.97,6 2.96,9l0.19 0 0 0.57c0.98,2.96 1.96,5.93 2.95,8.89l0.21 0 0 0.6 2.97 8.86 0.18 0 0 0.53c1.01,2.98 2.03,5.96 3.05,8.94l0.11 0 0 0.32c1.04,3.04 2.08,6.09 3.13,9.14l0.02 0 0 0.05c8.04,23.24 16.38,46.35 25,69.34l0.23 0 0 0.62c1.9,5.06 3.81,10.11 5.74,15.15l0.57 0 0 1.5 3.06 7.97 0.1 0 0 0.24c2,5.18 4.01,10.36 6.04,15.53l0.26 0 0 0.67c1.99,5.04 3.98,10.07 5.99,15.1l0.32 0 0 0.8c2,5 4.01,9.99 6.04,14.97l0.27 0 0 0.67c2.05,5.04 4.12,10.07 6.2,15.1l0.11 0 0 0.27c6.08,14.69 12.27,29.32 18.58,43.89l0.35 0 0 0.78c3.08,7.12 6.19,14.22 9.33,21.3l0.13 0 0 0.29 2.68 6.02 0.47 0 0 1.05c4.08,9.13 8.21,18.25 12.39,27.34l0.23 0 0 0.5c7.2,15.67 14.55,31.28 22.04,46.81l0.04 0 0 0.08 3 6.23 0.15 0 0 0.32 2.93 5.99 0.23 0 0 0.47 2.85 5.84 0.3 0 0 0.6 2.81 5.7 0.35 0 0 0.71 2.78 5.6 0.37 0 0 0.75 2.77 5.56 0.38 0 0 0.78 2.79 5.53 0.37 0 0 0.73 2.81 5.58 0.34 0 0 0.69 2.87 5.62 0.29 0 0 0.56 2.93 5.75 0.22 0 0 0.42 3.03 5.88 0.13 0 0 0.25 3.13 6.06 0.02 0 0 0.03c7.12,13.72 14.35,27.38 21.69,40.98l0.39 0 0 0.72c1,1.86 2,3.73 3.01,5.59l0.14 0 0 0.25c3.97,7.3 7.97,14.57 11.99,21.83l0.63 0 0 1.12 2.87 5.18 0.28 0 0 0.51c4.03,7.21 8.09,14.4 12.18,21.57l0.44 0 0 0.78 3.15 5.53 0.01 0 0 0.01c5.33,9.32 10.73,18.61 16.18,27.88 -73.65,84.34 -150.86,165.46 -231.83,242.96 -93.45,-64.92 -183.69,-134.77 -270.3,-208.8 -94.99,-81.38 -185.46,-168.12 -270.9,-259.89zm182.25 -2615.41c258.35,-148.15 528.87,-270.9 807.56,-367.55l-5.87 7.5 0 0.32 -0.25 0c-3.08,3.96 -6.15,7.91 -9.21,11.88l0 0.74 -0.57 0c-2.98,3.86 -5.94,7.71 -8.89,11.58l0 1.04 -0.79 0 -2.37 3.11 0 0.04 -0.03 0c-2.1,2.76 -4.19,5.52 -6.28,8.29l0 1.18 -0.88 0 -2.27 3 0 0.15 -0.11 0c-2.07,2.75 -4.14,5.51 -6.2,8.27l0 1.19 -0.89 0 -2.26 3.05 0 0.11 -0.08 0c-2.09,2.8 -4.16,5.6 -6.23,8.41l0 1.05 -0.77 0c-2.91,3.94 -5.81,7.89 -8.69,11.85l0 0.77 -0.56 0 -5.75 7.92 0 1.54 -1.12 0 -2.04 2.83 0 0.32 -0.23 0c-2.03,2.82 -4.06,5.64 -6.08,8.47l0 1 -0.71 0c-2.93,4.09 -5.84,8.2 -8.75,12.31l0 0.3 -0.21 0c-7.36,10.43 -14.65,20.9 -21.87,31.41l0 0.13 -0.09 0c-2.08,3.03 -4.15,6.06 -6.22,9.1l0 0.37 -0.25 0c-2.03,2.98 -4.04,5.96 -6.06,8.94l0 0.52 -0.35 0c-1.99,2.95 -3.97,5.91 -5.95,8.86l0 0.6 -0.4 0c-1.98,2.96 -3.95,5.91 -5.91,8.87l0 0.6 -0.4 0c-1.97,2.98 -3.95,5.96 -5.91,8.95l0 0.51 -0.34 0 -2.82 4.29 0 2.02 -1.31 0 -1.84 2.81 0 0.34 -0.22 0 -2.93 4.51 0 1.8 -1.17 0 -1.99 3.07 0 0.08 -0.05 0 -3.1 4.81 0 1.5 -0.97 0c-1.78,2.78 -3.57,5.57 -5.34,8.35l0 1.12 -0.71 0c-1.87,2.93 -3.74,5.87 -5.6,8.82l0 0.64 -0.4 0c-1.98,3.12 -3.95,6.25 -5.91,9.39l0 0.07 -0.05 0c-8.51,13.6 -16.91,27.27 -25.18,40.99l0 0.02 -0.01 0 -3.15 5.22 0 1.09 -0.65 0c-2.95,4.92 -5.89,9.86 -8.81,14.8l0 0.97 -0.57 0 -2.58 4.38 0 1.93 -1.13 0 -5.18 8.85 0 0.61 -0.35 0 -2.81 4.82 0 1.49 -0.85 0 -2.3 3.97 0 2.33 -1.35 0 -1.8 3.16 -3.16 5.5 0 0.81 -0.45 0 -2.7 4.74 0 1.57 -0.89 0c-2.88,5.07 -5.73,10.15 -8.58,15.24l0 0.53 -0.29 0 -2.86 5.13 0 1.18 -0.65 0c-4.02,7.24 -8.01,14.5 -11.97,21.77l0 0.31 -0.16 0c-8.51,15.65 -16.87,31.37 -25.07,47.17l0 0.14 -0.07 0 -3.08 5.96 0 0.35 -0.19 0 -2.97 5.78 0 0.53 -0.27 0 -2.88 5.62 0 0.68 -0.35 0 -2.81 5.53 0 0.78 -0.39 0 -2.76 5.46 0 0.85 -0.43 0 -2.73 5.43 0 0.88 -0.44 0 -2.71 5.44 0 0.87 -0.43 0 -2.72 5.5 0 0.81 -0.4 0 -2.76 5.58 0 0.73 -0.36 0 -2.79 5.71 0 0.59 -0.29 0 -2.87 5.89 0 0.42 -0.2 0 -2.95 6.11 0 0.2 -0.1 0c-5.47,11.35 -10.86,22.74 -16.18,34.16 -5.89,-2.99 -11.8,-5.97 -17.71,-8.93l-0.71 0 0 -0.35 -5.62 -2.8 -0.69 0 0 -0.34 -5.67 -2.81 -0.63 0 0 -0.32 -5.76 -2.84 -0.55 0 0 -0.27 -5.88 -2.88 -0.43 0 0 -0.21 -6.04 -2.95 -0.27 0 0 -0.13 -6.23 -3.02 -0.08 0 0 -0.04c-26.83,-12.97 -53.86,-25.58 -81.08,-37.81l-0.93 0 0 -0.42 -6.1 -2.74 -0.21 0 0 -0.09c-7.04,-3.15 -14.11,-6.27 -21.18,-9.37l-0.9 0 0 -0.39c-6.96,-3.05 -13.93,-6.08 -20.91,-9.07l-1.17 0 0 -0.5 -6.2 -2.66 -0.1 0 0 -0.04c-17.59,-7.5 -35.25,-14.84 -52.98,-22.03l-0.65 0 0 -0.27c-5,-2.02 -10.01,-4.04 -15.02,-6.04l-0.75 0 0 -0.3c-5.05,-2.02 -10.11,-4.02 -15.17,-6.01l-0.6 0 0 -0.24c-5.18,-2.04 -10.37,-4.06 -15.56,-6.07l-0.21 0 0 -0.08 -7.97 -3.07 -1.49 0 0 -0.58c-5.02,-1.92 -10.04,-3.83 -15.07,-5.73l-0.71 0 0 -0.27c-19.76,-7.46 -39.6,-14.73 -59.53,-21.81l-0.4 0 0 -0.15 -8.51 -3.01 -0.95 0 0 -0.33 -8.06 -2.82 -1.4 0 0 -0.49 -7.69 -2.67 -1.77 0 0 -0.61c-18,-6.21 -36.06,-12.26 -54.19,-18.15zm539.66 3201.64l6.56 -6.45 0 -0.3 0.3 0 2.85 -2.82 0 -0.33 0.34 0 2.82 -2.79 0 -0.36 0.36 0 2.79 -2.76 0 -0.4 0.4 0 2.75 -2.74 0 -0.41 0.42 0 2.74 -2.73 0 -0.43 0.43 0 2.72 -2.72 0 -0.43 0.43 0 2.73 -2.73 0 -0.43 0.42 0 2.73 -2.73 0 -0.42 0.42 0 2.74 -2.75 0 -0.4 0.39 0 2.76 -2.79 0 -0.37 0.37 0 2.78 -2.81 0 -0.34 0.34 0 2.82 -2.85 0 -0.31 0.3 0 2.85 -2.9 0 -0.25 0.25 0 2.91 -2.95 0 -0.2 0.19 0 2.96 -3.02 0 -0.14 0.14 0 3.01 -3.08 0 -0.07 0.07 0c5.25,-5.38 10.49,-10.76 15.71,-16.17l0 -2.76 2.66 0 0.49 -0.51 0 -2.64 2.55 0 0.6 -0.64 0 -2.52 2.42 0 0.74 -0.76 0 -2.39 2.29 0 0.86 -0.9 0 -2.26 2.15 0 1.01 -1.05 0 -2.1 2 0 1.15 -1.21 0 -1.94 1.85 0 1.31 -1.38 0 -1.78 1.69 0 1.46 -1.54 0 -1.61 1.53 0 1.62 -1.72 0 -1.44 1.36 0 1.8 -1.9 0 -1.25 1.17 0 1.98 -2.11 0 -1.05 0.99 0 2.17 -2.3 0 -0.85 0.79 0 2.36 -2.52 0 -0.63 0.59 0 2.57 -2.75 0 -0.41 0.38 0 2.77 -2.97 0 -0.18 0.17 0c7.34,-7.88 14.64,-15.8 21.91,-23.74l0 -1.5 1.37 0 1.78 -1.95 0 -1.2 1.1 0 2.06 -2.26 0 -0.89 0.81 0 2.34 -2.58 0 -0.58 0.53 0 2.63 -2.9 0 -0.25 0.22 0c4.61,-5.09 9.2,-10.19 13.78,-15.3 3.56,5.11 7.14,10.21 10.73,15.3l0.5 0 0 0.71c2.07,2.92 4.14,5.84 6.21,8.75l0.1 0 0 0.13c2.97,4.17 5.94,8.34 8.93,12.49l0.53 0 0 0.73c2.86,3.97 5.74,7.93 8.62,11.88l0.85 0 0 1.17c2.02,2.77 4.04,5.53 6.07,8.3l0.23 0 0 0.32 2.09 2.83 1.07 0 0 1.44 5.94 8.02 0.37 0 0 0.5c3.01,4.05 6.03,8.09 9.06,12.12l0.4 0 0 0.53c3.03,4.04 6.08,8.07 9.14,12.09l0.32 0 0 0.43c3.1,4.07 6.21,8.13 9.33,12.18l0.14 0 0 0.19c7.26,9.44 14.59,18.85 21.98,28.2l0.1 0 0 0.13 2.39 3.03 0.76 0 0 0.95c3.08,3.89 6.18,7.79 9.29,11.66l0.17 0 0 0.22 2.36 2.94 0.8 0 0 0.99c3.12,3.88 6.25,7.76 9.39,11.62l0.07 0 0 0.09 2.5 3.07 0.65 0 0 0.8c4.08,5 8.18,9.99 12.3,14.97l0.32 0 0 0.39 2.29 2.76 0.86 0 0 1.04c4.09,4.93 8.2,9.84 12.32,14.74l0.3 0 0 0.36c5.23,6.21 10.48,12.39 15.76,18.56l0.01 0 0 0.01c7.24,8.45 14.53,16.86 21.87,25.23l0.21 0 0 0.24 2.56 2.91 0.6 0 0 0.68c7.24,8.22 14.52,16.41 21.86,24.55l0.22 0 0 0.24 2.63 2.92 0.52 0 0 0.57 2.33 2.58 0.82 0 0 0.91 2.05 2.25 1.11 0 0 1.22c8.29,9.11 16.64,18.16 25.05,27.17l0.18 0 0 0.19 2.76 2.96 0.4 0 0 0.42 2.57 2.73 0.58 0 0 0.62c38.98,41.46 79.26,81.79 120.8,120.94 -193.25,-73.12 -378.27,-163.57 -553.16,-269.36l0 0z"/>
   <path class="fil2" d="M17811.91 4256.77c-427.81,0 -843.89,0.1 -1260.01,0 -233.29,-0.06 -292.23,-58.87 -292.23,-291.24 -0.09,-358.13 -1.05,-716.34 0.48,-1074.47 0.64,-144.23 76.73,-219.88 211.41,-218.12 125.39,1.63 214.07,74.63 215.35,208.51 2.59,274.21 15.43,548.53 15.43,822.76l0 128.39 79.8 0c393.66,0 787.22,-5.59 1180.88,-4.76 194.13,0.39 271.95,72.43 273.25,266.06 2.27,358.12 2.43,715.04 -0.09,1073.17 -1.44,195.41 -131.2,302.32 -286.96,243.23 -108.93,-41.27 -131.8,-134.13 -132.35,-235.56 -1.47,-280.7 -0.41,-561.54 -0.66,-842.3 -0.07,-21.97 -2.41,-44.09 -4.29,-75.68zm-7818.39 -1159.13c-22.94,-143.08 -43.77,-314.75 -65.66,-395.51l461.8 0c164.17,0 328.49,-18.82 492.4,-12.91 117.65,4.19 199.47,90.82 196.08,201.29 -3.32,105.95 -86.57,200.52 -199.05,202.12 -296.1,4.12 -592.3,5.01 -885.58,5.01zm6268.67 1156.04c134.04,22.69 262.84,44.5 408.86,69.2 -10.51,-11.69 -2.59,-6.93 -2.52,-2.17 1.37,306.7 5.59,613.37 1.21,919.99 -1.53,106.75 -96.4,184.1 -200.9,184.28 -103.11,0.23 -203.17,-78.26 -204.7,-181.06 -5.18,-331.78 -1.95,-663.68 -1.95,-990.23zm1974.4 -425.86c-161.51,-17.13 -226.2,-37.32 -331.9,-44.73 -64.5,-4.54 -90.43,-22.3 -89.7,-90.44 3,-264.14 0.41,-528.27 1.63,-792.39 0.64,-135.73 87.68,-232.4 205.41,-232.97 122.6,-0.64 210.68,86.4 213.36,225.94 4.51,235.06 1.21,470.29 1.21,705.42l0 229.18zm-6469.34 -1144.44c444.43,0 909.16,-6.3 1373.8,-3.71 102.45,0.57 178.29,82.2 185.54,185.57 7.44,104.81 -61.53,195.82 -166.66,216.01 -37.63,7.26 -77.12,15.25 -115.79,15.34 -364.75,0.39 -729.5,9.29 -1094.32,9.29l-107.8 0c-25.6,-161.51 -49.5,-282.8 -74.77,-422.5zm-1840.67 1956.75c0,161.51 5.17,390.83 -1.69,587.06 -5.34,153.59 -138.9,236.75 -278.43,183.39 -82.84,-31.75 -130.56,-92.95 -130.65,-184.19 -0.48,-392.77 -1.45,-785.87 0.41,-1178.71 0.64,-127.9 84.79,-216.97 197.2,-218.85 112.7,-1.85 211.38,94.97 214.06,219.4 4.28,196.47 1.12,430.4 1.12,591.91l-2.01 0zm1894.95 -399.54c0,-118.2 -3.8,-234.1 3.07,-349.39 1.46,-24.08 42.39,-65.33 65.42,-65.58 409.32,-3.96 818.71,-5.5 1228.03,-0.89 122.18,1.37 208.83,103.84 209.72,223.1 0.8,111.2 -78.08,204.39 -200.58,205.6 -425.32,4.28 -850.7,0 -1276.02,-1.37 -5.97,0 -11.95,-4.44 -29.64,-11.47zm516.23 761.2c248.24,0 496.45,-0.57 744.7,0.23 150.43,0.5 249.43,85.52 249.11,211.25 -0.32,127.59 -97.46,211.64 -248.15,211.8 -493.23,0.51 -986.43,0.67 -1479.75,-0.07 -166.34,-0.25 -254.35,-82.7 -246.94,-227.16 6.32,-122.64 83.76,-194.77 217,-195.57 254.68,-1.62 509.36,-0.48 764.04,-0.48zm-2411.39 -1134.32c-140.58,-106.09 -249.27,-114.65 -410.78,1.31l0 -782.3c-80.76,0 -75.01,0.16 -109.09,0 -274.21,-1.05 -548.21,0.48 -822.35,-4.21 -166.18,-2.75 -257.52,-122.41 -212.38,-268.65 29.33,-95.04 96.25,-140.57 195.25,-140.57 377.52,0.07 755.02,-1.05 1132.44,0.64 150.5,0.64 223.91,67.42 225.86,216.25 4.19,319.19 1.05,638.48 1.05,977.54zm1846.81 1061.42c-143.58,23.97 -319.61,45.47 -400.37,68.15l0 -81.97c0,-668.45 -8.24,-1336.9 -7.92,-2005.32 0.1,-132.28 44.92,-209.08 141.16,-232.5 141.32,-34.4 264.37,54.35 264.86,200.11 2.33,674.9 4.02,1349.8 3.64,2024.71 0,12.29 -0.97,24.47 -1.38,26.82zm3184.88 496.23c-363.92,1.21 -672.63,-130.9 -931.04,-384.05 -106.34,-104.16 -117.88,-211.57 -34.8,-307.08 83.01,-95.54 203.34,-99.5 316.29,1.21 265.75,237.16 571.56,328.56 912,221.16 142.44,-44.98 268.97,-145.57 396.73,-230.06 74.76,-49.43 153.91,-92.93 231.58,-46.02 56.38,34 113.69,104.33 123.87,166.09 9.46,57.34 -27.28,139.86 -70.73,185.57 -255.59,268.08 -575.93,390.91 -943.91,393.18zm-770.93 -824.03c-198.5,36.33 -203.74,40.7 -316.79,261.79 -223.75,-302.49 -306.29,-641.97 -253.71,-1004.95 111.99,-774.07 748.15,-1262.51 1526.07,-1180.63 295.71,31.18 545.56,169.98 761,369.92 98.6,91.56 105.38,224.16 27.22,312.49 -81.82,92.54 -203.75,102.47 -309.03,4.53 -192.76,-179.52 -410.05,-280.05 -677.81,-279.06 -502.5,1.76 -865.4,451.95 -911.84,813.54 -27.7,216.01 2.52,416.92 109.59,606.5 17.1,30.29 29.94,63.07 45.3,95.86z"/>
   <path class="fil3" d="M17172.63 7081.81l186.35 0c6.23,148.48 54.35,105.65 120.13,104.15 183.69,-4.14 407.38,6.32 555.86,6.32l0 -256.45c0,-1.85 -64.89,-5.64 -101.86,-5.78 -172.03,-0.68 -342.41,0.67 -514.44,-0.59 -174.02,-1.35 -253.54,-92.07 -257.18,-290.96 -1.47,-77.36 -1.85,-155.18 3.2,-232.24 8.9,-135.13 70.38,-219.84 187.69,-224.66 239.73,-9.81 480.27,-12.63 719.94,-2.23 140.4,6.08 207.43,134.67 184.49,329.26 -70.67,-30.82 -167.48,70.61 -214.04,-74.32 -2.96,-9.35 -34.98,-14.4 -48.7,-14.48 -204.25,-0.89 -404.56,-0.59 -627.3,-0.59l0 291.33 370.19 0c97.84,0 195.79,-11.07 293.63,-8.4 150.79,4.17 229.65,87.84 235.29,258.38 2.67,80.72 3.56,159.63 -1.11,240.12 -8.99,154.93 -87.76,239.81 -223.26,241.37 -207.21,2.44 -414.58,-3.87 -621.78,-8.69 -203.66,-4.76 -273.15,-54.58 -247.1,-351.55z"/>
   <path class="fil4" d="M11278.81 6784.84l668.19 0 0 -371.22 -668.19 0 0 371.22zm885.49 668.2l-217.3 0 0 -445.47 -668.19 0 0 445.47 -198.23 0c-1.73,0 -4.69,-52.87 -4.84,-75.14 -2,-303.28 -4.08,-610.74 -4.97,-914.03 -0.59,-173.88 97.84,-289.63 249.16,-288.81 204.78,1.06 409.53,3.27 614.3,5.88 166.3,2.08 238.09,82.33 238.47,271.65 0.67,320.14 -0.38,649.4 -0.97,969.54 0,5.79 -3.85,30.9 -7.43,30.9z"/>
   <path class="fil5" d="M15659.2 6413.62l-231.95 0c-71.28,0 -142.56,-4.32 -213.82,-3.79 -280.79,1.85 -260.9,-64.38 -250.07,300.99 0.15,6.76 -1.94,15.07 1.12,18.86 13.74,17.3 37.94,46.62 52.78,46.85 209.68,3.03 419.19,1.62 641.93,1.62l0 -364.53zm212.77 1023.74c-147.21,23.55 -255.62,27.34 -326.81,-106.59 -15.22,-28.67 -23.24,-53.63 -41.65,-79.98 -189.77,-272.1 -215.53,-275.44 -512.5,-230.31l0 432.55 -231.13 0c-2.38,-74.26 -6.46,-71.67 -6.46,-100.89 -0.46,-350.37 1.7,-705.85 -1.71,-1056.13 -0.9,-88.2 26.56,-122.95 102.74,-122.12 249.25,2.58 498.55,-2.09 747.71,0.29 170.56,1.62 244.05,82.71 250.89,274.85 3.41,93.9 2.44,187.98 0.3,282.05 -3.94,172.68 -42.18,218.41 -243.67,290.72 85.07,134.84 168.21,266.39 262.28,415.55z"/>
   <polygon class="fil6" points="10907.58,6413.62 10090.88,6413.62 10090.88,6710.59 10759.09,6710.59 10759.09,6933.32 10165.14,6933.32 10165.14,7230.29 10907.58,7230.29 10907.58,7453.04 9942.41,7453.04 9942.41,6190.89 10907.58,6190.89 "/>
   <path class="fil7" d="M16030.4 6190.89l965.19 0 0 222.73 -742.45 0 0 296.97 593.95 0 0 222.73 -600.11 0c-10.78,0 -13.75,15.68 -14.04,18.41 -26.21,246.72 -35.19,245.31 179.66,245.02 195.43,-0.23 434.48,-1.35 582.99,-1.35l0 257.65 -965.19 0 0 -1262.15z"/>
   <polygon class="fil8" points="8828.75,7453.04 8828.75,6190.89 9793.91,6190.89 9793.91,6413.62 9051.47,6413.62 9051.47,6710.59 9645.44,6710.59 9645.44,6933.32 9051.47,6933.32 9051.47,7453.04 "/>
   <polygon class="fil9" points="13357.61,6190.89 13357.61,6413.62 12912.17,6413.62 12912.17,7453.04 12763.67,7453.04 12763.67,6413.62 12318.23,6413.62 12318.23,6190.89 "/>
   <path class="fil10" d="M14399.52 7434.68c-236.56,2.38 -473.32,11.22 -709.7,4.53 -122.88,-3.49 -192.97,-86.35 -195.2,-225.78 -5.41,-339.06 -1.77,-685.41 -1.77,-1022.56l236.01 0 0 93.04c0,272.53 -11.05,545.08 -14.54,817.55 -0.97,74.78 11.95,99.8 78.69,98.53 174.78,-3.34 346.28,0.97 521.05,2.23 29.55,77.52 55.92,154.94 85.47,232.45z"/>
   <path class="fil11" d="M14398.84 7434.68c-29.55,-77.51 -59.16,-154.93 -88.7,-232.45 66.74,-1.72 80.04,-45.37 79.37,-114.12 -2.76,-296.01 -1.12,-560.09 -1.12,-897.24l196.91 0c2.37,0 7.49,47.9 7.49,73.28 0.59,303.14 1.26,606.51 0,909.64 -0.67,160.22 -59.98,237.73 -193.94,260.89z"/>
  </g>
 </g>
</svg>
